<svg version="1.1" id="Capa_1" xmlns="http://www.w3.org/2000/svg" xmlns:xlink="http://www.w3.org/1999/xlink" x="0px" y="0px"
	 width="56.69px" height="56.69px" viewBox="0 0 56.69 56.69" enable-background="new 0 0 56.69 56.69" xml:space="preserve">
<g>
	<polygon fill-rule="evenodd" clip-rule="evenodd" fill="#016FD0" points="-0.001,-0.001 56.692,-0.001 56.692,30.602 
		56.692,38.889 56.692,56.691 -0.001,56.691 -0.001,27.84 -0.001,23.894 -0.001,-0.001 	"/>
	<path fill-rule="evenodd" clip-rule="evenodd" fill="#FFFFFF" d="M11.004,39.503v-8.9h9.424l1.011,1.317l1.045-1.317h34.208v8.286
		c0,0-0.896,0.605-1.93,0.614H35.821L34.68,38.1v1.403h-3.735v-2.396c0,0-0.51,0.335-1.613,0.335H28.06v2.061h-5.656l-1.01-1.347
		l-1.025,1.347H11.004L11.004,39.503z"/>
	<path fill-rule="evenodd" clip-rule="evenodd" fill="#FFFFFF" d="M-0.001,23.894l2.125-4.954h3.676l1.206,2.775V18.94h4.568
		l0.718,2.006l0.696-2.006h20.509v1.008c0,0,1.078-1.008,2.851-1.008l6.654,0.022l1.185,2.739V18.94h3.823l1.053,1.573V18.94h3.858
		v8.9h-3.858l-1.009-1.578v1.578h-5.617l-0.564-1.403h-1.511l-0.555,1.403h-3.811c-1.524,0-2.499-0.988-2.499-0.988v0.988h-5.743
		l-1.141-1.403v1.403H5.254L4.69,26.437H3.185L2.625,27.84h-2.626V23.894L-0.001,23.894z"/>
	<path fill-rule="evenodd" clip-rule="evenodd" fill="#016FD0" d="M2.876,20.037l-2.867,6.665h1.866l0.529-1.335h3.074l0.526,1.335
		h1.907l-2.863-6.665H2.876L2.876,20.037z M3.937,21.587l0.937,2.332H2.997L3.937,21.587L3.937,21.587z"/>
	<polygon fill-rule="evenodd" clip-rule="evenodd" fill="#016FD0" points="8.11,26.701 8.11,20.036 10.762,20.045 12.304,24.342 
		13.81,20.036 16.441,20.036 16.441,26.701 14.775,26.701 14.775,21.79 13.008,26.701 11.547,26.701 9.776,21.79 9.776,26.701 
		8.11,26.701 	"/>
	<polygon fill-rule="evenodd" clip-rule="evenodd" fill="#016FD0" points="17.581,26.701 17.581,20.036 23.017,20.036 
		23.017,21.527 19.264,21.527 19.264,22.667 22.93,22.667 22.93,24.07 19.264,24.07 19.264,25.253 23.017,25.253 23.017,26.701 
		17.581,26.701 	"/>
	<path fill-rule="evenodd" clip-rule="evenodd" fill="#016FD0" d="M23.982,20.037v6.665h1.667v-2.368h0.701l1.998,2.368h2.035
		l-2.191-2.456c0.899-0.075,1.827-0.848,1.827-2.047c0-1.402-1.101-2.162-2.329-2.162H23.982L23.982,20.037z M25.649,21.528h1.904
		c0.457,0,0.789,0.357,0.789,0.701c0,0.443-0.431,0.701-0.765,0.701h-1.929V21.528L25.649,21.528L25.649,21.528z"/>
	<polygon fill-rule="evenodd" clip-rule="evenodd" fill="#016FD0" points="32.401,26.701 30.7,26.701 30.7,20.036 32.401,20.036 
		32.401,26.701 	"/>
	<path fill-rule="evenodd" clip-rule="evenodd" fill="#016FD0" d="M36.435,26.701h-0.367c-1.777,0-2.856-1.4-2.856-3.306
		c0-1.952,1.067-3.359,3.311-3.359h1.842v1.578h-1.909c-0.911,0-1.555,0.711-1.555,1.798c0,1.291,0.736,1.833,1.798,1.833h0.438
		L36.435,26.701L36.435,26.701z"/>
	<path fill-rule="evenodd" clip-rule="evenodd" fill="#016FD0" d="M40.06,20.037l-2.866,6.665h1.866l0.528-1.335h3.075l0.526,1.335
		h1.907l-2.864-6.665H40.06L40.06,20.037z M41.121,21.587l0.938,2.332H40.18L41.121,21.587L41.121,21.587z"/>
	<polygon fill-rule="evenodd" clip-rule="evenodd" fill="#016FD0" points="45.292,26.701 45.292,20.036 47.41,20.036 50.115,24.223 
		50.115,20.036 51.781,20.036 51.781,26.701 49.731,26.701 46.958,22.404 46.958,26.701 45.292,26.701 	"/>
	<polygon fill-rule="evenodd" clip-rule="evenodd" fill="#016FD0" points="12.144,38.363 12.144,31.699 17.581,31.699 17.581,33.19 
		13.828,33.19 13.828,34.33 17.493,34.33 17.493,35.733 13.828,35.733 13.828,36.917 17.581,36.917 17.581,38.363 12.144,38.363 	
		"/>
	<polygon fill-rule="evenodd" clip-rule="evenodd" fill="#016FD0" points="38.785,38.363 38.785,31.699 44.221,31.699 44.221,33.19 
		40.468,33.19 40.468,34.33 44.117,34.33 44.117,35.733 40.468,35.733 40.468,36.917 44.221,36.917 44.221,38.363 38.785,38.363 	
		"/>
	<polygon fill-rule="evenodd" clip-rule="evenodd" fill="#016FD0" points="17.792,38.363 20.439,35.072 17.729,31.699 
		19.828,31.699 21.442,33.784 23.061,31.699 25.079,31.699 22.404,35.031 25.056,38.363 22.958,38.363 21.39,36.311 19.861,38.363 
		17.792,38.363 	"/>
	<path fill-rule="evenodd" clip-rule="evenodd" fill="#016FD0" d="M25.253,31.7v6.665h1.71v-2.105h1.754
		c1.484,0,2.609-0.787,2.609-2.317c0-1.269-0.883-2.242-2.393-2.242H25.253L25.253,31.7z M26.963,33.208h1.848
		c0.479,0,0.822,0.293,0.822,0.767c0,0.445-0.342,0.768-0.828,0.768h-1.842V33.208L26.963,33.208L26.963,33.208z"/>
	<path fill-rule="evenodd" clip-rule="evenodd" fill="#016FD0" d="M32.049,31.699v6.664h1.667v-2.367h0.701l1.998,2.367h2.036
		l-2.192-2.455c0.899-0.076,1.828-0.848,1.828-2.047c0-1.402-1.102-2.162-2.33-2.162H32.049L32.049,31.699L32.049,31.699z
		 M33.716,33.19h1.904c0.457,0,0.789,0.357,0.789,0.701c0,0.442-0.431,0.701-0.765,0.701h-1.929V33.19L33.716,33.19z"/>
	<path fill-rule="evenodd" clip-rule="evenodd" fill="#016FD0" d="M44.994,38.363v-1.446h3.334c0.493,0,0.707-0.267,0.707-0.56
		c0-0.28-0.213-0.563-0.707-0.563h-1.507c-1.31,0-2.039-0.798-2.039-1.995c0-1.069,0.668-2.1,2.614-2.1h3.244l-0.701,1.499h-2.806
		c-0.537,0-0.702,0.282-0.702,0.551c0,0.276,0.204,0.581,0.614,0.581h1.578c1.46,0,2.094,0.828,2.094,1.913
		c0,1.166-0.706,2.12-2.173,2.12H44.994L44.994,38.363z"/>
	<path fill-rule="evenodd" clip-rule="evenodd" fill="#016FD0" d="M51.108,38.363v-1.446h3.193c0.494,0,0.707-0.267,0.707-0.56
		c0-0.28-0.213-0.563-0.707-0.563h-1.365c-1.31,0-2.039-0.798-2.039-1.995c0-1.069,0.668-2.1,2.614-2.1h3.181l-0.702,1.499h-2.741
		c-0.537,0-0.702,0.282-0.702,0.551c0,0.276,0.204,0.581,0.614,0.581h1.438c1.46,0,2.094,0.828,2.094,1.913
		c0,1.166-0.707,2.12-2.174,2.12H51.108L51.108,38.363z"/>
</g>
</svg>

