<svg version="1.1" id="Capa_1" xmlns="http://www.w3.org/2000/svg" xmlns:xlink="http://www.w3.org/1999/xlink" x="0px" y="0px"
	 width="325.542px" height="272.227px" viewBox="0 0 325.542 272.227" enable-background="new 0 0 325.542 272.227"
	 xml:space="preserve">
<g>
	<g>
		<path fill="#333333" d="M314.819,19.072c-1.536,5.12-4.096,9.728-6.656,13.824c-3.071,5.12-7.68,10.24-13.824,15.36
			c-8.191,7.168-16.896,14.336-25.6,21.504l-10.24,8.704c-5.632,4.096-8.191,10.24-7.168,17.408
			c1.024,7.168,2.048,14.336,3.072,22.016l12.288,89.6c0.512,5.12,0.512,8.704-0.512,11.776c-1.536,4.607-4.608,8.191-9.729,10.752
			c-1.023,0.512-2.048,1.023-3.584,1.535c-3.072,1.024-4.096,0.513-5.12-2.048c-1.536-3.071-2.56-6.655-4.096-10.239l-22.528-60.416
			c-2.56-6.656-6.144-12.8-9.728-18.944l-3.072-5.12l-4.608-6.656l-15.871,11.776c-14.336,10.752-28.673,22.016-42.496,32.768
			c-3.584,2.561-3.072,5.632-2.561,7.681c1.024,4.607,2.561,9.216,3.584,13.823l1.024,4.608c1.023,4.096,1.023,7.68-0.512,10.752
			c-1.536,3.072-3.585,5.12-7.168,6.145c0,0-1.024,0-2.561-1.024c-1.023-0.512-2.048-1.536-2.561-2.561
			c-11.775-14.848-23.039-29.184-34.303-44.031l-9.729-12.288c-1.023-1.024-1.536-2.048-2.561-3.584
			c-0.512-0.512-0.512-1.024-0.512-1.024s0.512-0.512,1.023-1.024c2.049-2.048,4.609-4.608,6.656-6.144
			c1.537-1.536,3.584-1.536,5.633-0.512c4.607,2.048,8.703,4.096,13.312,6.656l5.632,2.56c1.024,0.512,2.049,1.024,3.072,1.536
			c2.561,1.536,5.632,1.024,8.191-1.024c4.097-4.096,8.192-7.68,12.288-11.776l35.328-33.28l4.097-4.096l-2.561-3.584
			c-0.512-1.024-1.023-1.536-1.536-2.56c-1.535-2.048-2.56-4.096-4.096-5.632c-5.632-6.656-12.288-11.776-19.456-16.384
			c-17.408-11.776-35.328-24.064-52.736-36.352c-1.535-1.024-3.071-2.048-4.607-3.584s-1.536-2.048-0.512-3.072
			c2.56-4.608,6.656-8.704,11.264-12.288c1.023-1.024,2.561-1.536,6.145-0.512s6.655,2.048,9.215,3.072l95.744,35.84
			c2.561,1.024,5.12,1.536,7.169,2.048c5.632,1.024,11.264-0.512,15.871-4.608c2.561-2.56,5.12-4.608,7.681-7.168
			c4.096-3.584,8.191-7.168,12.288-10.752c8.703-7.168,15.872-13.312,22.527-18.432c6.145-4.608,13.313-7.68,20.992-8.704
			c2.561-0.512,4.608,0,6.656,1.024C314.819,12.928,315.844,16,314.819,19.072L314.819,19.072z M318.915,3.2
			c-4.096-2.56-8.704-3.584-14.336-3.072c-9.728,1.536-17.92,5.12-25.6,10.752c-6.656,5.12-14.336,11.264-23.04,18.432
			c-4.096,3.584-8.192,7.168-12.288,10.752c-2.56,2.56-5.12,4.608-7.68,7.168c-2.561,2.048-4.608,3.072-7.681,2.56
			c-1.535-0.512-3.584-1.024-5.632-1.536l-95.744-35.84c-3.072-1.024-6.144-2.048-9.728-3.072c-7.168-2.048-12.288,0-15.36,2.56
			C96.195,16,91.587,21.12,88.515,26.752c-3.584,5.632-2.559,11.776,2.561,16.384c2.049,2.048,4.096,3.584,5.633,4.608
			c17.407,12.288,35.327,24.064,52.735,36.352c6.656,4.608,12.8,8.704,17.408,14.336c1.023,1.536,2.048,2.56,3.072,4.096
			l-33.28,31.744c-3.584,3.584-7.168,6.656-10.752,10.24c-0.512,0-1.024-0.512-1.536-0.512l-5.632-2.56
			c-4.608-2.048-8.704-4.608-13.313-6.656c-5.632-2.56-11.775-2.048-16.384,2.048c-2.56,2.048-5.12,4.608-7.681,7.168
			c-4.607,4.608-5.119,10.24-1.023,15.36c1.023,1.536,2.048,2.56,3.072,3.584l9.729,12.288
			c11.264,14.848,23.039,29.695,34.815,44.032c1.536,2.048,3.071,3.584,5.12,4.607c2.048,1.024,6.144,3.584,11.264,2.048
			c6.145-2.048,10.752-6.144,12.8-12.288c2.048-5.12,2.561-10.752,0.513-16.896l-1.024-4.608c-1.024-4.096-2.048-8.191-3.072-12.288
			c13.824-10.752,27.648-20.991,40.96-31.744l6.656-5.12l1.536,2.56c3.584,5.632,6.656,11.264,8.704,17.408l23.552,60.416
			c1.536,3.584,2.561,7.168,4.096,10.24c2.561,5.632,6.656,8.704,11.776,8.704c2.048,0,4.096-0.513,6.144-1.536
			c1.536-0.513,3.072-1.024,4.097-2.049c8.191-4.096,13.312-9.728,15.359-17.407c1.536-6.145,1.024-11.776,0.513-15.872
			l-12.288-89.6c-1.024-7.168-2.048-14.848-3.072-22.016c-0.512-3.584,0.512-5.632,3.072-7.68l10.752-9.216
			c8.704-7.168,16.896-14.336,25.6-21.504c7.168-6.144,11.776-11.776,15.872-17.92c3.072-4.608,6.145-10.24,7.68-16.384
			C327.107,14.464,324.547,7.296,318.915,3.2L318.915,3.2z"/>
	</g>
</g>
<g>
	<path fill="#E64244" d="M89.54,196.736c-1.537-2.048-5.121-2.561-7.169-1.024L1.917,256.867c-2.048,1.536-2.561,5.12-1.023,7.168
		c1.023,1.536,2.56,2.048,4.096,2.048c1.023,0,2.048-0.512,3.072-1.024l80.453-61.154C91.075,202.368,91.075,199.296,89.54,196.736
		L89.54,196.736z"/>
	<path fill="#E64244" d="M98.755,219.776l-30.79,23.778c-2.048,1.536-2.56,5.12-1.024,7.168c1.024,1.536,2.561,2.048,4.097,2.048
		c1.024,0,2.048-0.512,3.071-1.023l31.303-23.779c2.049-1.535,2.561-5.119,1.024-7.168
		C104.388,218.752,101.315,218.24,98.755,219.776L98.755,219.776z"/>
	<path fill="#E64244" d="M54.653,253.283l-12.801,9.728c-2.048,1.536-2.56,5.12-1.023,7.168c1.023,1.536,2.56,2.048,4.096,2.048
		c1.023,0,2.049-0.512,3.072-1.023l12.8-9.729c2.048-1.536,2.56-5.12,1.024-7.168C60.285,252.259,56.701,251.747,54.653,253.283
		L54.653,253.283z"/>
	<path fill="#E64244" d="M28.028,214.883c1.024,0,2.049-0.512,3.072-1.023l12.801-9.729c2.047-1.536,2.56-5.12,1.023-7.168
		s-5.12-2.56-7.168-1.024l-12.8,9.729c-2.048,1.536-2.56,5.12-1.024,7.168C24.957,214.371,26.493,214.883,28.028,214.883
		L28.028,214.883z"/>
	<path fill="#E64244" d="M54.142,195.427c1.023,0,2.047-0.512,3.071-1.023l14.406-10.467c2.048-1.536,2.56-5.12,1.024-7.168
		c-1.536-2.048-5.12-2.561-7.168-1.024l-14.406,10.467c-2.049,1.536-2.561,5.12-1.024,7.168
		C51.069,194.403,52.604,195.427,54.142,195.427L54.142,195.427z"/>
</g>
</svg>

