<svg id="Componente_1_1" data-name="Componente 1 – 1" xmlns="http://www.w3.org/2000/svg" width="100" height="100" viewBox="0 0 299.685 243.877">
  <path id="Trazado_2810" data-name="Trazado 2810" d="M801.483,173.986h-38.1V134.36c-.008-13.806-12.325-25.056-27.46-25.064H537.8c-10.537.016-19.118,7.864-19.128,17.489V252.7c.009,9.617,8.59,17.457,19.137,17.481h21.452v46.767a4.834,4.834,0,0,0,3.163,4.423,5.713,5.713,0,0,0,5.717-.86l43.972-36.86v10.976c0,8.5,7.576,15.415,16.881,15.415h96.593L775.546,351.9a5.545,5.545,0,0,0,3.578,1.27,5.759,5.759,0,0,0,2.132-.4,4.843,4.843,0,0,0,3.162-4.431v-38.3h17.046c9.314,0,16.891-6.915,16.891-15.415V189.393C818.345,180.918,810.778,174,801.483,173.986ZM612.111,195.73v74.79L569.857,305.94V265.349a5.086,5.086,0,0,0-5.3-4.833h-26.73c-4.714-.016-8.554-3.522-8.554-7.824v-125.9c0-4.31,3.84-7.824,8.546-7.824H735.91c9.293.008,16.863,6.916,16.871,15.391v39.626H635.889C622.779,174.018,612.118,183.772,612.111,195.73Zm195.644,98.9a6.049,6.049,0,0,1-6.291,5.742h-22.34a5.079,5.079,0,0,0-5.295,4.833v32.132l-42.6-35.694a5.578,5.578,0,0,0-3.586-1.27H628.992a6.042,6.042,0,0,1-6.283-5.742V195.737c.009-6.642,5.921-12.062,13.189-12.077h165.56a6.066,6.066,0,0,1,6.3,5.741Z" transform="translate(-518.67 -109.296)" fill="#8f317f"/>
  <g id="Grupo_70" data-name="Grupo 70" transform="translate(127.566 119.303)">
    <ellipse id="Elipse_14" data-name="Elipse 14" cx="16.389" cy="14.958" rx="16.389" ry="14.958" fill="#8f317f"/>
    <ellipse id="Elipse_15" data-name="Elipse 15" cx="16.389" cy="14.958" rx="16.389" ry="14.958" transform="translate(53.313)" fill="#8f317f"/>
    <ellipse id="Elipse_16" data-name="Elipse 16" cx="16.389" cy="14.958" rx="16.389" ry="14.958" transform="translate(106.684)" fill="#8f317f"/>
  </g>
</svg>
