<svg xmlns="http://www.w3.org/2000/svg" width="20" height="20" viewBox="0 0 285.503 283.482">
  <g id="Componente_5_1" data-name="Componente 5 – 1" transform="translate(0 0)">
    <g id="Componente_4_1" data-name="Componente 4 – 1">
      <path id="Trazado_3573" data-name="Trazado 3573" d="M331.082,692.579c72.211,0,130.968,58.292,130.968,129.963S403.293,952.5,331.082,952.5a130.986,130.986,0,0,1-72.065-21.488L208.7,947l16.351-48.256a128.624,128.624,0,0,1-24.942-76.205c0-71.671,58.74-129.963,130.975-129.963m0-11.779c-78.711,0-142.755,63.588-142.755,141.742a139.8,139.8,0,0,0,23.654,78.067l-14.444,42.614a11.781,11.781,0,0,0,14.73,15.007l45.114-14.336a142.786,142.786,0,0,0,73.7,20.388c78.711,0,142.748-63.58,142.748-141.74S409.793,680.8,331.082,680.8Z" transform="translate(-188.326 -680.799)" fill="#fff8f8"/>
    </g>
    <path id="Trazado_3574" data-name="Trazado 3574" d="M352.761,797.675c-.971-1.6-3.538-2.554-7.364-4.463-3.849-1.909-22.777-11.162-26.292-12.425s-6.1-1.916-8.656,1.908-9.938,12.426-12.194,14.979c-2.239,2.554-4.471,2.863-8.32.955s-16.26-5.955-30.942-18.956c-11.432-10.146-19.154-22.64-21.409-26.463-2.231-3.819-.217-5.884,1.688-7.792,1.734-1.72,3.849-4.46,5.778-6.687a26.269,26.269,0,0,0,3.849-6.393,6.949,6.949,0,0,0-.334-6.686c-.948-1.9-8.647-20.708-11.859-28.369-3.188-7.638-6.4-7.35-8.655-7.35a55.142,55.142,0,0,0-6.393.669s-7.706.95-11.229,4.772-13.454,13.073-13.454,31.864,13.772,36.979,15.693,39.513c1.929,2.55,26.6,42.4,65.711,57.692s39.108,10.193,46.161,9.552c7.046-.623,22.754-9.239,25.966-18.162s3.212-16.58,2.255-18.16Z" transform="translate(-130.79 -620.038)" fill="#fff8f8" fill-rule="evenodd"/>
  </g>
</svg>
