<svg id="Componente_2_1" data-name="Componente 2 – 1" xmlns="http://www.w3.org/2000/svg" width="20" height="20" viewBox="0 0 212.463 210.959">
  <path id="Trazado_3573" data-name="Trazado 3573" d="M294.56,689.565c53.738,0,97.462,43.379,97.462,96.714S348.3,882.993,294.56,882.993A97.477,97.477,0,0,1,240.932,867l-37.445,11.9,12.168-35.911a95.719,95.719,0,0,1-18.561-56.71c0-53.335,43.712-96.714,97.467-96.714m0-8.767c-58.574,0-106.234,47.321-106.234,105.481a104.03,104.03,0,0,0,17.6,58.1L195.18,876.088a8.77,8.77,0,0,0,8.307,11.58,8.864,8.864,0,0,0,2.655-.412l33.573-10.669a106.25,106.25,0,0,0,54.847,15.172c58.574,0,106.229-47.314,106.229-105.479S353.135,680.8,294.56,680.8Z" transform="translate(-188.326 -680.799)" fill="#464646"/>
  <path id="Trazado_3574" data-name="Trazado 3574" d="M312.906,770.11c-.723-1.189-2.633-1.9-5.48-3.321-2.865-1.421-16.95-8.307-19.566-9.247s-4.543-1.425-6.441,1.42-7.4,9.248-9.074,11.147-3.327,2.131-6.192.711-12.1-4.432-23.026-14.106a86.452,86.452,0,0,1-15.932-19.693c-1.661-2.843-.162-4.379,1.256-5.8,1.291-1.279,2.865-3.319,4.3-4.976a19.558,19.558,0,0,0,2.865-4.758,5.171,5.171,0,0,0-.249-4.975c-.706-1.415-6.435-15.41-8.825-21.111-2.373-5.683-4.762-5.47-6.441-5.47a41.019,41.019,0,0,0-4.757.5s-5.734.708-8.356,3.552-10.012,9.729-10.012,23.712,10.249,27.519,11.678,29.4,19.8,31.551,48.9,42.933,29.1,7.585,34.352,7.109,16.933-6.876,19.323-13.516,2.39-12.339,1.678-13.515Z" transform="translate(-147.722 -637.918)" fill="#464646" fill-rule="evenodd"/>
  <path id="Trazado_3575" data-name="Trazado 3575" d="M217.008,703.772" transform="translate(-52.234 -571.793)" fill="#464646" fill-rule="evenodd"/>
</svg>
