<svg id="Componente_3_1" data-name="Componente 3 – 1" xmlns="http://www.w3.org/2000/svg" width="50" height="50" viewBox="0 0 285.485 225.22">
  <path id="Trazado_2810" data-name="Trazado 2810" d="M788.083,169.037h-36.3V132.442c-.007-12.75-11.741-23.139-26.159-23.146H536.891c-10.038.015-18.212,7.262-18.221,16.151V241.73c.009,8.881,8.183,16.122,18.231,16.144h20.435v43.189a4.475,4.475,0,0,0,3.013,4.084,5.586,5.586,0,0,0,5.446-.794l41.888-34.04v10.136c0,7.849,7.218,14.236,16.081,14.236h92.016l47.594,38.659a5.385,5.385,0,0,0,3.409,1.173,5.635,5.635,0,0,0,2.031-.371,4.483,4.483,0,0,0,3.013-4.092v-35.37h16.239c8.872,0,16.09-6.386,16.09-14.236V183.265C804.147,175.438,796.938,169.052,788.083,169.037Zm-180.4,20.08v69.068L567.432,290.9V253.41c0-2.465-2.265-4.463-5.053-4.463H536.916c-4.49-.015-8.149-3.253-8.149-7.226V125.454c0-3.98,3.659-7.225,8.141-7.225H725.617c8.853.007,16.063,6.387,16.072,14.213v36.595H630.336C617.846,169.067,607.691,178.075,607.683,189.117Zm186.375,91.331c0,2.918-2.693,5.3-5.993,5.3H766.784a4.779,4.779,0,0,0-5.044,4.463v29.674l-40.58-32.963a5.417,5.417,0,0,0-3.416-1.173h-93.98c-3.3,0-5.985-2.384-5.985-5.3V189.124c.009-6.134,5.641-11.139,12.564-11.153H788.059c3.306.007,5.992,2.391,6,5.3Z" transform="translate(-518.67 -109.296)" fill="#fafafa"/>
  <g id="Grupo_70" data-name="Grupo 70" transform="translate(121.522 110.176)">
    <ellipse id="Elipse_14" data-name="Elipse 14" cx="15.612" cy="13.814" rx="15.612" ry="13.814" fill="#fafafa"/>
    <ellipse id="Elipse_15" data-name="Elipse 15" cx="15.612" cy="13.814" rx="15.612" ry="13.814" transform="translate(50.787)" fill="#fafafa"/>
    <ellipse id="Elipse_16" data-name="Elipse 16" cx="15.612" cy="13.814" rx="15.612" ry="13.814" transform="translate(101.629)" fill="#fafafa"/>
  </g>
</svg>
