<svg version="1.1" id="Capa_1" xmlns="http://www.w3.org/2000/svg" xmlns:xlink="http://www.w3.org/1999/xlink" x="0px" y="0px"
	 width="479.937px" height="512px" viewBox="0 0 479.937 512" enable-background="new 0 0 479.937 512" xml:space="preserve">
<g>
	<g>
		<path fill="#333333" d="M247.468,492.551V236.658l51.873-25.041c3.73-1.801,5.294-6.284,3.493-10.015
			c-1.801-3.73-6.284-5.295-10.015-3.493l-52.851,25.514l-20.796-10.04c-3.731-1.802-8.214-0.237-10.015,3.493
			s-0.237,8.214,3.493,10.015l19.818,9.567v255.893L15,387.566V131.673l165.6,79.945c1.051,0.508,2.162,0.748,3.255,0.748
			c2.788,0,5.466-1.562,6.759-4.241c1.801-3.73,0.237-8.214-3.493-10.015l-162.37-78.386l74.505-35.968L324.55,192.52
			c0.033,0.046,0.07,0.087,0.104,0.132v90c0,2.581,1.327,4.979,3.513,6.353c1.214,0.762,2.6,1.147,3.988,1.147
			c1.112,0,2.227-0.247,3.26-0.746l56.113-27.089c2.592-1.251,4.239-3.875,4.239-6.754v-90.495l69.169-33.392v255.894
			L247.468,492.551L247.468,492.551z M339.654,192.156l41.113-19.848v78.546l-41.113,19.848V192.156L339.654,192.156z
			 M160.835,54.333l214.904,103.747l-44.015,21.248L116.909,75.624L160.835,54.333L160.835,54.333z M239.968,15.828l215.217,103.897
			l-62.388,30.117c-0.395-0.3-0.812-0.578-1.27-0.8L177.773,45.853L239.968,15.828L239.968,15.828z M475.697,112.97L243.229,0.746
			c-2.062-0.994-4.461-0.994-6.521,0L4.239,112.97C1.647,114.221,0,116.846,0,119.724v272.55c0,2.878,1.647,5.503,4.239,6.754
			l232.468,112.226c1.03,0.497,2.146,0.746,3.261,0.746c1.115,0,2.23-0.249,3.261-0.746l232.468-112.226
			c2.592-1.251,4.239-3.876,4.239-6.754V119.725C479.937,116.846,478.288,114.222,475.697,112.97L475.697,112.97z"/>
	</g>
	<path fill="#E64446" d="M76.894,358.48l-34.115-16.47c-3.732-1.803-8.214-0.236-10.015,3.493c-1.801,3.73-0.237,8.214,3.493,10.016
		l34.115,16.469c1.051,0.508,2.162,0.748,3.255,0.748c2.788,0,5.466-1.563,6.759-4.241C82.188,364.764,80.624,360.281,76.894,358.48
		L76.894,358.48z"/>
	<path fill="#E64446" d="M108.291,338.042l-65.465-31.604c-3.731-1.802-8.214-0.237-10.015,3.492
		c-1.8,3.73-0.236,8.214,3.494,10.017l65.465,31.604c1.051,0.506,2.162,0.747,3.255,0.747c2.788,0,5.466-1.562,6.759-4.241
		C113.585,344.327,112.021,339.842,108.291,338.042L108.291,338.042z"/>
</g>
</svg>

