<?xml version="1.0" encoding="utf-8"?>
<!-- Generator: Adobe Illustrator 23.0.3, SVG Export Plug-In . SVG Version: 6.00 Build 0)  -->
<svg width="50" height="50" version="1.1" id="Capa_1" xmlns="http://www.w3.org/2000/svg" xmlns:xlink="http://www.w3.org/1999/xlink" x="0px" y="0px"
	 viewBox="0 0 40 30" style="enable-background:new 0 0 40 30;" xml:space="preserve">
<style type="text/css">
	.st0{fill:#FFFFFF;}
</style>
<g>
	<path class="st0" d="M28.8,9.8L21.1,6c-0.2-0.1-0.5-0.1-0.7,0l-7.8,3.8c-0.3,0.1-0.4,0.4-0.4,0.7V20c0,0.3,0.2,0.6,0.4,0.7l7.8,3.8
		l0.2,0.1l0,0h0.2h0.1l8.1-3.9c0.3-0.1,0.4-0.4,0.4-0.7v-9.7l0,0c0,0,0-0.1-0.1-0.1C29.2,10,29,9.8,28.8,9.8z M20,14.8v7.8l-6.3-3.1
		v-7.8L20,14.8z M21.5,14.8l2.7-1.3v2.9c0,0.4,0.3,0.7,0.7,0.7c0.4,0,0.7-0.3,0.7-0.7v-3.6l2.2-1.1v7.8l-6.3,3.1
		C21.5,22.6,21.5,14.8,21.5,14.8z M25,11.4l-6.1-3l1.8-0.9l6.1,3L25,11.4z M23.3,12.3l-2.6,1.2l-6.1-3l2.6-1.2L23.3,12.3z"/>
	<path class="st0" d="M33.4,3.1c-0.4,0-0.8,0.4-0.8,0.8v2C29.8,2.2,25.4,0,20.8,0c-8.3,0-15,6.7-15,15s6.7,15,15,15
		c4.9,0,9.5-2.4,12.3-6.5c0.2-0.4,0.2-0.8-0.2-1.1c-0.4-0.2-0.8-0.2-1.1,0.2c-2.5,3.6-6.6,5.8-11.1,5.8c-7.4,0-13.4-6-13.4-13.4
		s6-13.4,13.4-13.4c4.3,0,8.3,2.1,10.9,5.6h-2.3c-0.4,0-0.8,0.4-0.8,0.8s0.4,0.8,0.8,0.8h4.1c0.4,0,0.8-0.4,0.8-0.8V3.8
		C34.2,3.4,33.9,3.1,33.4,3.1z"/>
</g>
</svg>
