<?xml version="1.0" encoding="utf-8"?>
<!-- Generator: Adobe Illustrator 23.0.3, SVG Export Plug-In . SVG Version: 6.00 Build 0)  -->
<svg width="50" height="50" version="1.1" id="Capa_1" xmlns="http://www.w3.org/2000/svg" xmlns:xlink="http://www.w3.org/1999/xlink" x="0px" y="0px"
	 viewBox="0 0 65 30" style="enable-background:new 0 0 65 30;" xml:space="preserve">
<style type="text/css">
	.st0{fill:#FFFFFF;}
</style>
<g>
	<path class="st0" d="M11.8,27.5h-0.1c-0.3,0-0.4,0.1-0.6,0.3c-0.2-0.2-0.3-0.3-0.6-0.3h-0.1c-0.3,0-0.6,0.3-0.6,0.7v0.2
		c0,0.4,0.4,1,1.3,1.7c1-0.7,1.3-1.2,1.3-1.7v-0.2C12.4,27.7,12.1,27.5,11.8,27.5z"/>
	<path class="st0" d="M16.7,27.5h-0.1c-0.3,0-0.4,0.1-0.6,0.3c-0.2-0.2-0.3-0.3-0.6-0.3h-0.1c-0.3,0-0.6,0.3-0.6,0.7v0.2
		c0,0.4,0.4,1,1.3,1.7c1-0.7,1.3-1.2,1.3-1.7v-0.2C17.3,27.7,17,27.5,16.7,27.5z"/>
	<path class="st0" d="M22.1,27.5H22c-0.3,0-0.4,0.1-0.6,0.3c-0.2-0.2-0.3-0.3-0.6-0.3h-0.1c-0.3,0-0.6,0.3-0.6,0.7v0.2
		c0,0.4,0.4,1,1.3,1.7c1-0.7,1.3-1.2,1.3-1.7v-0.2C22.7,27.7,22.4,27.5,22.1,27.5z"/>
	<path class="st0" d="M28,27.5h-0.1c-0.3,0-0.4,0.1-0.6,0.3c-0.2-0.2-0.3-0.3-0.6-0.3h-0.1c-0.3,0-0.6,0.3-0.6,0.7v0.2
		c0,0.4,0.4,1,1.3,1.7c1-0.7,1.3-1.2,1.3-1.7v-0.2C28.6,27.7,28.3,27.5,28,27.5z"/>
	<path class="st0" d="M33,27.5L33,27.5c-0.4,0-0.5,0.1-0.7,0.3c-0.2-0.2-0.3-0.3-0.6-0.3h-0.1c-0.3,0-0.6,0.3-0.6,0.7v0.2
		c0,0.4,0.4,1,1.3,1.7c1-0.7,1.3-1.2,1.3-1.7v-0.2C33.5,27.7,33.2,27.5,33,27.5z"/>
	<path class="st0" d="M37.4,27.5L37.4,27.5c-0.4,0-0.5,0.1-0.7,0.3c-0.2-0.2-0.3-0.3-0.6-0.3H36c-0.3,0-0.6,0.3-0.6,0.7v0.2
		c0,0.4,0.4,1,1.3,1.7c1-0.7,1.3-1.2,1.3-1.7v-0.2C38,27.7,37.7,27.5,37.4,27.5z"/>
	<path class="st0" d="M43.2,27.5L43.2,27.5c-0.4,0-0.5,0.1-0.7,0.3c-0.2-0.2-0.3-0.3-0.6-0.3h-0.1c-0.3,0-0.6,0.3-0.6,0.7v0.2
		c0,0.4,0.4,1,1.3,1.7c1-0.7,1.3-1.2,1.3-1.7v-0.2C43.8,27.7,43.5,27.5,43.2,27.5z"/>
	<path class="st0" d="M48.4,27.5L48.4,27.5c-0.4,0-0.5,0.1-0.7,0.3c-0.2-0.2-0.3-0.3-0.6-0.3H47c-0.3,0-0.6,0.3-0.6,0.7v0.2
		c0,0.4,0.4,1,1.3,1.7c1-0.7,1.3-1.2,1.3-1.7v-0.2C48.9,27.7,48.6,27.5,48.4,27.5z"/>
	<path class="st0" d="M53.9,27.5L53.9,27.5c-0.4,0-0.5,0.1-0.7,0.3c-0.2-0.2-0.3-0.3-0.6-0.3h-0.1c-0.3,0-0.6,0.3-0.6,0.7v0.2
		c0,0.4,0.4,1,1.3,1.7c1-0.7,1.3-1.2,1.3-1.7v-0.2C54.5,27.7,54.2,27.5,53.9,27.5z"/>
	<path class="st0" d="M8.5,20.5h2.3V22c-0.6,0.4-1.3,0.6-2.2,0.6c-1.8,0-3.2-1.4-3.2-3.3l0,0c0-1.8,1.3-3.2,3-3.2
		c1.2,0,1.9,0.4,2.7,1.1l1.4-1.7c-1.1-0.9-2.2-1.4-4.1-1.4c-3.2,0-5.5,2.4-5.5,5.4l0,0c0,3.1,2.2,5.4,5.5,5.4c1.9,0,3.4-0.7,4.5-1.7
		v-4.5H8.5V20.5z"/>
	<path class="st0" d="M21.5,24.5v-4.6c0-1.1-0.3-2-0.9-2.5c-0.6-0.6-1.5-0.9-2.7-0.9c-1.4,0-2.2,0.3-3.1,0.6l0.6,1.7
		c0.7-0.3,1.3-0.4,2.2-0.4c1.1,0,1.7,0.5,1.7,1.5V20c-0.6-0.2-1.1-0.3-2-0.3c-1.9,0-3.2,0.8-3.2,2.5l0,0c0,1.6,1.2,2.4,2.7,2.4
		c1.1,0,1.9-0.4,2.4-1v0.9H21.5z M17.6,23.1c-0.7,0-1.2-0.4-1.2-1l0,0c0-0.7,0.6-1.1,1.6-1.1c0.6,0,1.1,0.1,1.4,0.3v0.4
		C19.4,22.5,18.7,23.1,17.6,23.1z"/>
	<path class="st0" d="M27.8,18.7v-2.4c-1.3-0.1-2.1,0.7-2.5,1.8v-1.6H23v8h2.3v-3c0-1.9,0.9-2.8,2.4-2.8H27.8z"/>
	<path class="st0" d="M31.6,16.4c-1.4,0-2.2,0.3-3.1,0.6l0.6,1.7c0.7-0.3,1.3-0.4,2.2-0.4c1.1,0,1.7,0.5,1.7,1.5V20
		c-0.6-0.2-1.1-0.3-2-0.3c-1.9,0-3.2,0.8-3.2,2.5l0,0c0,1.6,1.2,2.4,2.7,2.4c1.1,0,1.9-0.4,2.4-1v0.9h2.2v-4.6c0-1.1-0.3-2-0.9-2.5
		C33.7,16.8,32.8,16.4,31.6,16.4z M33,21.7c0,0.8-0.7,1.4-1.8,1.4c-0.7,0-1.2-0.4-1.2-1l0,0c0-0.7,0.6-1.1,1.6-1.1
		c0.6,0,1.1,0.1,1.4,0.3V21.7z"/>
	<path class="st0" d="M41.2,16.4c-1.1,0-1.8,0.6-2.3,1.3v-1.1h-2.3v8h2.3V20c0-1.1,0.6-1.6,1.4-1.6c0.9,0,1.4,0.6,1.4,1.6v4.5H44
		v-5.2C43.9,17.5,42.9,16.4,41.2,16.4z"/>
	<path class="st0" d="M48,14.5h-2.3v2h-1v1.9h1v3.8c0,1.8,0.9,2.4,2.3,2.4c0.8,0,1.3-0.2,1.8-0.5v-1.8c-0.3,0.2-0.7,0.3-1.1,0.3
		c-0.5,0-0.7-0.3-0.7-0.8v-3.4h1.9v-1.9H48V14.5z"/>
	<rect x="51.1" y="16.5" class="st0" width="2.3" height="8"/>
	<polygon class="st0" points="51.2,15.6 53,15.6 54.9,13.8 52.9,13 	"/>
	<path class="st0" d="M61,17.3c-0.6-0.6-1.5-0.9-2.7-0.9c-1.4,0-2.2,0.3-3.1,0.6l0.6,1.7c0.7-0.3,1.3-0.4,2.2-0.4
		c1.1,0,1.7,0.5,1.7,1.5V20c-0.6-0.2-1.1-0.3-2-0.3c-1.9,0-3.2,0.8-3.2,2.5l0,0c0,1.6,1.2,2.4,2.7,2.4c1.1,0,1.9-0.4,2.4-1v0.9h2.2
		v-4.6C61.8,18.8,61.6,17.9,61,17.3z M59.7,21.7c0,0.8-0.7,1.4-1.8,1.4c-0.7,0-1.2-0.4-1.2-1l0,0c0-0.7,0.6-1.1,1.6-1.1
		c0.6,0,1.1,0.1,1.4,0.3V21.7z"/>
	<polygon class="st0" points="12.3,9.9 10.5,9.9 10.5,9.2 12.1,9.2 12.1,8.6 10.5,8.6 10.5,7.9 12.3,7.9 12.3,7.2 9.8,7.2 9.8,10.6 
		12.3,10.6 	"/>
	<polygon class="st0" points="20.6,10.6 21.4,9.4 22.1,10.6 23,10.6 21.8,8.9 22.9,7.2 22.1,7.2 21.4,8.3 20.7,7.2 19.9,7.2 21,8.9 
		19.8,10.6 	"/>
	<polygon class="st0" points="31.4,10.6 32.2,10.6 32.2,7.9 33.2,7.9 33.2,7.2 30.4,7.2 30.4,7.9 31.4,7.9 	"/>
	<path class="st0" d="M41.6,9.5h0.6l0,0l0.7,1.1h0.9L43,9.4c0.4-0.2,0.7-0.5,0.7-1l0,0c0-0.3-0.1-0.6-0.3-0.8
		c-0.2-0.2-0.5-0.3-1-0.3h-1.5v3.3h0.7C41.6,10.6,41.6,9.5,41.6,9.5z M41.6,7.9h0.7c0.4,0,0.6,0.2,0.6,0.5l0,0
		c0,0.3-0.2,0.5-0.6,0.5h-0.7V7.9z"/>
	<path class="st0" d="M52.1,9.8h1.4l0.3,0.7h0.8l-1.4-3.3h-0.7l-1.4,3.3h0.7L52.1,9.8z M52.8,8.1l0.4,1.1h-0.9L52.8,8.1z"/>
	<rect x="15.9" class="st0" width="0.2" height="10.6"/>
	<rect x="27.2" class="st0" width="0.2" height="10.6"/>
	<rect x="36.6" class="st0" width="0.2" height="10.6"/>
	<rect x="47.6" class="st0" width="0.2" height="10.6"/>
</g>
</svg>
