<svg xmlns="http://www.w3.org/2000/svg" xmlns:xlink="http://www.w3.org/1999/xlink" width="700pt" height="700pt" version="1.1" viewBox="0 0 700 700"><g xmlns="http://www.w3.org/2000/svg"><path d="m315.28 231.84c0 17.938-14.543 32.48-32.48 32.48s-32.48-14.543-32.48-32.48 14.543-32.48 32.48-32.48 32.48 14.543 32.48 32.48"/><path d="m449.68 231.84c0 17.938-14.543 32.48-32.48 32.48s-32.48-14.543-32.48-32.48 14.543-32.48 32.48-32.48 32.48 14.543 32.48 32.48"/><path d="m572.88 218.96h-17.359c-16.801-98.559-103.04-173.6-206.08-173.6-103.04 0-188.72 75.039-206.08 173.6h-16.801c-23.52 0-43.121 19.602-43.121 43.121v72.238c0 11.762 4.4805 22.398 12.879 30.801 8.3984 7.8398 19.039 12.32 30.238 12.32h38.641c11.199 0 20.16-8.9609 20.16-20.16v-103.04c0-90.16 73.359-163.52 163.52-163.52s163.52 73.359 163.52 163.52v140.56c0 36.961-30.238 67.199-67.199 67.199h-36.961c-2.8008-11.762-12.879-20.16-25.762-20.16l-66.637 0.003906c-15.121 0-26.879 12.32-26.879 26.879v18.48c0 15.121 12.32 26.879 26.879 26.879h67.762c12.32 0 22.398-8.9609 25.762-20.16h36.961c54.32 0 99.121-44.238 99.121-99.121v-17.922h27.441c11.199 0 22.398-4.4805 30.238-12.32 8.3984-8.3984 12.879-19.039 12.879-30.801l-0.003906-71.676c0-23.52-19.039-42.559-43.121-43.117z"/><path d="m426.72 344.96c5.6016-8.3984 2.8008-19.602-5.6016-25.199-8.3984-5.6016-19.602-2.8008-25.199 5.6016-8.9609 14-26.879 22.398-46.48 22.398s-37.52-8.3984-46.48-22.398c-5.6016-8.3984-16.801-10.641-25.199-5.6016-8.3984 5.6016-10.641 16.801-5.6016 25.199 15.68 24.078 44.801 38.641 77.281 38.641 32.484 0.55859 62.164-14.562 77.281-38.641z"/></g></svg>