<svg version="1.1" id="Capa_1" xmlns="http://www.w3.org/2000/svg" xmlns:xlink="http://www.w3.org/1999/xlink" x="0px" y="0px"
	 width="493.491px" height="512px" viewBox="0 0 493.491 512" enable-background="new 0 0 493.491 512" xml:space="preserve">
<g>
	<path fill="#333333" d="M477.38,225.356l-9.104-2.27v-1.551c0-41.536-11.617-82.058-33.592-117.183
		c-2.197-3.512-6.826-4.579-10.336-2.383c-3.512,2.199-4.576,6.828-2.379,10.34c20.096,32.121,30.889,69.082,31.293,107.035
		l-10.518-2.617c-2.057-14.368-14.021-25.571-28.729-26.446c-7-37.492-26.582-71.758-55.619-97.058
		c-6.651-5.797-13.707-11.032-21.086-15.685l17.59-31.84c17.301,10.66,33.125,23.906,46.848,39.489
		c2.738,3.109,7.479,3.406,10.588,0.667c3.104-2.734,3.404-7.476,0.672-10.582c-16.357-18.566-35.496-34.043-56.505-46.054
		c-0.25-0.181-0.508-0.353-0.784-0.508c-0.236-0.13-0.474-0.242-0.716-0.349C322.246,9.978,285.03,0,246.746,0
		c-39.578,0-76.759,10.441-108.949,28.703c-0.008,0.004-0.017,0.009-0.024,0.013c-0.01,0.004-0.019,0.012-0.03,0.015
		C70.608,66.837,25.211,138.98,25.211,221.536v1.551l-9.103,2.27C6.625,227.719,0,236.196,0,245.973v99.605
		c0,9.773,6.625,18.254,16.108,20.613l9.103,2.27v34.535c0,43.199,35.147,78.348,78.349,78.348h37.963
		C143.004,498.497,157.431,512,174.961,512h54.181c18.51,0,33.573-15.059,33.573-33.57v-9.168c0-8.969-3.491-17.398-9.832-23.738
		c-2.93-2.93-7.68-2.93-10.61-0.004c-2.929,2.93-2.929,7.68,0,10.609c3.508,3.508,5.442,8.172,5.442,13.133v9.168
		c0,10.242-8.332,18.57-18.573,18.57h-54.181c-10.242,0-18.573-8.328-18.573-18.57v-9.168c0-10.242,8.331-18.57,18.573-18.57h40.496
		c4.146,0,7.5-3.359,7.5-7.5c0-4.145-3.354-7.5-7.5-7.5h-40.496c-17.53,0-31.957,13.504-33.438,30.652H103.56
		c-34.931,0-63.349-28.418-63.349-63.348V372.2l10.531,2.625c2.146,14.961,15.043,26.504,30.59,26.504h31.211
		c17.043,0,30.91-13.867,30.91-30.91V221.133c0-17.043-13.867-30.91-30.91-30.91H94.772c6.822-33.078,24.418-63.246,50.172-85.692
		c28.244-24.604,64.396-38.16,101.802-38.16c37.401,0,73.555,13.556,101.801,38.16c25.755,22.446,43.351,52.614,50.169,85.692
		h-17.768c-17.043,0-30.909,13.867-30.909,30.91v149.285c0,17.043,13.862,30.906,30.909,30.906h31.207
		c15.551,0,28.447-11.539,30.594-26.504l34.635-8.625c9.482-2.363,16.107-10.84,16.107-20.617v-99.605
		C493.487,236.196,486.866,227.719,477.38,225.356L477.38,225.356z M50.422,359.286l-30.688-7.648
		C16.944,350.946,15,348.45,15,345.575v-99.602c0-2.875,1.944-5.367,4.733-6.066l30.688-7.645V359.286z M112.543,205.223
		c8.769,0,15.91,7.137,15.91,15.91v149.285c0,8.773-7.138,15.906-15.91,15.906H81.332c-8.772,0-15.91-7.137-15.91-15.906V221.133
		c0-8.773,7.138-15.91,15.91-15.91H112.543z M135.09,93.224c-29.03,25.3-48.612,59.565-55.612,97.058
		c-14.707,0.879-26.672,12.082-28.735,26.446l-10.505,2.617c0.771-73.335,39.947-137.628,98.332-173.676l17.611,31.875
		C148.797,82.195,141.742,87.427,135.09,93.224L135.09,93.224z M246.746,51.367c-27.152,0-53.703,6.521-77.535,18.746
		l-17.599-31.854C180.103,23.406,212.457,15,246.746,15c33.442,0,66.012,8.16,95.108,23.298l-17.578,31.815
		C300.444,57.888,273.897,51.367,246.746,51.367L246.746,51.367z M428.065,370.418c0,8.773-7.135,15.906-15.91,15.906h-31.211
		c-8.768,0-15.909-7.137-15.909-15.906V221.133c0-8.773,7.142-15.91,15.909-15.91h31.211c8.775,0,15.91,7.137,15.91,15.91V370.418z
		 M478.487,345.579c0,2.871-1.945,5.367-4.732,6.063l-30.689,7.645v-127.02l30.689,7.645c2.787,0.695,4.732,3.188,4.732,6.063
		V345.579z M478.487,345.579"/>
</g>
<g>
	<path fill="#E64345" d="M25.211,368.461v34.535c0,43.199,35.147,78.348,78.349,78.348h37.963
		C143.004,498.497,157.431,512,174.961,512h54.181c18.51,0,33.573-15.059,33.573-33.57v-9.168c0-8.969-3.491-17.398-9.832-23.738
		c-2.93-2.93-7.68-2.93-10.61-0.004c-2.929,2.93-2.929,7.68,0,10.609c3.508,3.508,5.442,8.172,5.442,13.133v9.168
		c0,10.242-8.332,18.57-18.573,18.57h-54.181c-10.242,0-18.573-8.328-18.573-18.57v-9.168c0-10.242,8.331-18.57,18.573-18.57h40.496
		c4.146,0,7.5-3.359,7.5-7.5c0-4.145-3.354-7.5-7.5-7.5h-40.496c-17.53,0-31.957,13.504-33.438,30.652H103.56
		c-34.931,0-63.349-28.418-63.349-63.348V372.2"/>
</g>
<g>
	<path fill="#333333" d="M-970.839,225.356l-9.104-2.27v-1.551c0-41.536-11.617-82.058-33.592-117.183
		c-2.197-3.512-6.826-4.579-10.336-2.383c-3.512,2.199-4.576,6.828-2.379,10.34c20.096,32.121,30.889,69.082,31.293,107.035
		l-10.518-2.617c-2.057-14.368-14.021-25.571-28.729-26.446c-7-37.492-26.582-71.758-55.619-97.058
		c-6.651-5.797-13.707-11.032-21.086-15.685l17.59-31.84c17.301,10.66,33.125,23.906,46.848,39.489
		c2.738,3.109,7.479,3.406,10.588,0.667c3.104-2.734,3.404-7.476,0.672-10.582c-16.357-18.566-35.496-34.043-56.505-46.054
		c-0.25-0.181-0.508-0.353-0.784-0.508c-0.236-0.13-0.474-0.242-0.716-0.349C-1125.973,9.978-1163.188,0-1201.473,0
		c-39.578,0-76.759,10.441-108.949,28.703c-0.008,0.004-0.017,0.009-0.024,0.013c-0.01,0.004-0.019,0.012-0.03,0.015
		c-67.134,38.106-112.531,110.25-112.531,192.805v1.551l-9.103,2.27c-9.483,2.363-16.108,10.84-16.108,20.617v99.605
		c0,9.773,6.625,18.254,16.108,20.613l9.103,2.27v34.535c0,43.199,35.147,78.348,78.349,78.348h37.963
		c1.481,17.152,15.908,30.656,33.438,30.656h54.181c18.51,0,33.573-15.059,33.573-33.57v-9.168c0-8.969-3.491-17.398-9.832-23.738
		c-2.93-2.93-7.68-2.93-10.61-0.004c-2.929,2.93-2.929,7.68,0,10.609c3.508,3.508,5.442,8.172,5.442,13.133v9.168
		c0,10.242-8.332,18.57-18.573,18.57h-54.181c-10.242,0-18.573-8.328-18.573-18.57v-9.168c0-10.242,8.331-18.57,18.573-18.57h40.496
		c4.146,0,7.5-3.359,7.5-7.5c0-4.145-3.354-7.5-7.5-7.5h-40.496c-17.53,0-31.957,13.504-33.438,30.652h-37.963
		c-34.931,0-63.349-28.418-63.349-63.348V372.2l10.531,2.625c2.146,14.961,15.043,26.504,30.59,26.504h31.211
		c17.043,0,30.91-13.867,30.91-30.91V221.133c0-17.043-13.867-30.91-30.91-30.91h-17.771c6.822-33.078,24.418-63.246,50.172-85.692
		c28.244-24.604,64.396-38.16,101.802-38.16c37.401,0,73.555,13.556,101.801,38.16c25.755,22.446,43.351,52.614,50.169,85.692
		h-17.768c-17.043,0-30.909,13.867-30.909,30.91v149.285c0,17.043,13.862,30.906,30.909,30.906h31.207
		c15.551,0,28.447-11.539,30.594-26.504l34.635-8.625c9.482-2.363,16.107-10.84,16.107-20.617v-99.605
		C-954.731,236.196-961.353,227.719-970.839,225.356L-970.839,225.356z M-1397.797,359.286l-30.688-7.648
		c-2.789-0.691-4.733-3.188-4.733-6.063v-99.602c0-2.875,1.944-5.367,4.733-6.066l30.688-7.645V359.286z M-1335.676,205.223
		c8.769,0,15.91,7.137,15.91,15.91v149.285c0,8.773-7.138,15.906-15.91,15.906h-31.211c-8.772,0-15.91-7.137-15.91-15.906V221.133
		c0-8.773,7.138-15.91,15.91-15.91H-1335.676z M-1313.129,93.224c-29.03,25.3-48.612,59.565-55.612,97.058
		c-14.707,0.879-26.672,12.082-28.735,26.446l-10.505,2.617c0.771-73.335,39.947-137.628,98.332-173.676l17.611,31.875
		C-1299.422,82.195-1306.477,87.427-1313.129,93.224L-1313.129,93.224z M-1201.473,51.367c-27.152,0-53.703,6.521-77.535,18.746
		l-17.599-31.854c28.49-14.853,60.845-23.259,95.134-23.259c33.442,0,66.012,8.16,95.108,23.298l-17.578,31.815
		C-1147.774,57.888-1174.321,51.367-1201.473,51.367L-1201.473,51.367z M-1020.153,370.418c0,8.773-7.135,15.906-15.91,15.906
		h-31.211c-8.768,0-15.909-7.137-15.909-15.906V221.133c0-8.773,7.142-15.91,15.909-15.91h31.211c8.775,0,15.91,7.137,15.91,15.91
		V370.418z M-969.731,345.579c0,2.871-1.945,5.367-4.732,6.063l-30.689,7.645v-127.02l30.689,7.645
		c2.787,0.695,4.732,3.188,4.732,6.063V345.579z M-969.731,345.579"/>
</g>
</svg>

