<svg xmlns="http://www.w3.org/2000/svg" xmlns:xlink="http://www.w3.org/1999/xlink" width="700pt" height="700pt" version="1.1" viewBox="0 0 700 700"><g xmlns="http://www.w3.org/2000/svg"><path d="m350 89.602c-49.352 0-89.602 40.246-89.602 89.602 0 49.352 40.246 89.602 89.602 89.602 49.352 0 89.602-40.25 89.602-89.602s-40.246-89.602-89.602-89.602zm0 22.398c37.246 0 67.199 29.953 67.199 67.199 0 37.246-29.953 67.199-67.199 67.199s-67.199-29.953-67.199-67.199c0-37.246 29.953-67.199 67.199-67.199zm0 179.2c-92.695 0-168 72.691-168 163.1v16.102h22.398v-16.102c0-78.008 64.559-140.7 145.6-140.7 81.039 0 145.6 62.691 145.6 140.7v16.102h22.398v-16.102c0-90.41-75.305-163.1-168-163.1z"/></g></svg>