<svg width="700pt" height="700pt" version="1.1" viewBox="0 0 700 700" xmlns="http://www.w3.org/2000/svg"><path d="m464.34 358.34 127.19 127.19c9.8945 9.8945 9.9258 25.906-0.082032 35.918-9.9414 9.9375-26.203 9.7969-35.918 0.082032l-127.19-127.19c-79.887 62.172-195.44 56.543-268.87-16.887-79.523-79.523-79.523-208.46 0-287.98 79.527-79.523 208.46-79.523 287.98 0 73.43 73.43 79.059 188.98 16.887 268.87zm-52.883-16.883c59.645-59.645 59.645-156.34 0-215.99-59.645-59.645-156.34-59.645-215.99 0-59.645 59.645-59.645 156.34 0 215.99 59.645 59.645 156.34 59.645 215.99 0z" fill-rule="evenodd"/></svg>
