<svg xmlns="http://www.w3.org/2000/svg" xmlns:xlink="http://www.w3.org/1999/xlink" width="700pt" height="700pt" version="1.1" viewBox="0 0 700 700"><g xmlns="http://www.w3.org/2000/svg"><path d="m558.84 535.15-48.73-425c-0.47656-4.1406-3.9805-7.2695-8.1484-7.2695h-29.926v-4.7539c0-45.445-36.973-82.418-82.418-82.418-13.344 0-25.945 3.207-37.105 8.8633-11.16-5.6523-23.762-8.8633-37.105-8.8633-45.445 0-82.418 36.973-82.418 82.418v4.7578h-55.406c-4.3203 0-7.8984 3.3477-8.1836 7.6602l-28.273 425c-0.15234 2.2656 0.64453 4.4922 2.1953 6.1484 1.5508 1.6562 3.7188 2.5977 5.9883 2.5977h401.38c2.3398 0 4.5664-0.99609 6.1211-2.7422s2.293-4.0703 2.0273-6.3945zm-169.22-503.04c36.398 0 66.012 29.613 66.012 66.012l-0.003906 4.7539h-57.809v-4.7539c0-25.059-11.254-47.523-28.957-62.648 6.5352-2.1719 13.508-3.3633 20.758-3.3633zm-37.109 11.449c17.434 11.895 28.902 31.91 28.902 54.562l0.003907 4.7539h-57.809v-4.7539c0-22.652 11.469-42.668 28.902-54.562zm-103.12 54.559c0-36.398 29.613-66.012 66.012-66.012 7.25 0 14.223 1.1914 20.754 3.3594-17.703 15.129-28.957 37.594-28.957 62.648v4.7617h-57.809zm-91.316 429.76 27.18-408.59h47.734v68.367c0 4.5312 3.6719 8.2031 8.2031 8.2031s8.2031-3.6719 8.2031-8.2031l-0.003907-68.367h132.02v68.367c0 4.5312 3.6719 8.2031 8.2031 8.2031s8.2031-3.6719 8.2031-8.2031l0.003907-68.367h47.734l4.7031 70.719 22.477 337.88zm381.43-4.3203c-1.5273 1.25-3.3672 1.8633-5.1992 1.8633-2.3711 0-4.7227-1.0234-6.3477-3l-24.168-29.453c-1.0469-1.2734-1.6836-2.8359-1.8281-4.4805l-28.633-323.24c-0.39844-4.5117 2.9336-8.4961 7.4492-8.8945 4.5078-0.39062 8.4961 2.9336 8.8945 7.4453l28.41 320.72 22.562 27.496c2.8711 3.5039 2.3633 8.6719-1.1406 11.547z"/></g></svg>