<svg width="700pt" height="700pt" version="1.1" viewBox="0 0 700 700" xmlns="http://www.w3.org/2000/svg"><path d="m132.55 73.23c-34.305 0-62.551 28.246-62.551 62.551v288.44c0 34.305 28.246 62.547 62.551 62.547h435.07c34.305 0 62.379-28.246 62.379-62.547v-288.44c0-34.305-28.074-62.551-62.379-62.551zm0 35h435.07c15.52 0 27.379 12.031 27.379 27.547v35h-490v-35c0-15.52 12.031-27.547 27.547-27.547zm-27.547 97.547h490v32.812h-490zm0 67.812h490v150.63c0 15.52-11.859 27.516-27.379 27.516h-435.07c-15.52 0-27.547-11.996-27.547-27.516zm49.867 48.469h-0.003906c-6.1523 0.45312-11.613 4.1094-14.379 9.625-2.7656 5.5195-2.4258 12.082 0.89453 17.285 3.3203 5.1992 9.1289 8.2734 15.297 8.0898h122.23c4.707 0.10547 9.2617-1.6953 12.629-4.9883 3.3672-3.293 5.2617-7.8008 5.2617-12.512 0-4.7109-1.8945-9.2227-5.2617-12.516-3.3672-3.293-7.9219-5.0898-12.629-4.9844h-122.23c-0.60156-0.03125-1.207-0.03125-1.8125 0zm1.8125 52.434-0.003906-0.003907c-4.707-0.10156-9.2617 1.6953-12.629 4.9883-3.3672 3.293-5.2656 7.8047-5.2656 12.512 0 4.7109 1.8984 9.2227 5.2656 12.516 3.3672 3.293 7.9219 5.0898 12.629 4.9844h52.191c4.7109 0.10547 9.2617-1.6914 12.629-4.9844 3.3672-3.293 5.2656-7.8047 5.2656-12.516 0-4.707-1.8984-9.2188-5.2656-12.512-3.3672-3.293-7.918-5.0898-12.629-4.9883z"/></svg>
