<svg width="700pt" height="700pt" version="1.1" viewBox="0 0 700 700" xmlns="http://www.w3.org/2000/svg"><path d="m244.64 416.5h-89.195c-6.2578 0-10.953-5.2148-10.953-10.953v-233.68c0-5.7383 4.6953-10.953 10.953-10.953h400.07c6.2578 0 10.953 5.2148 10.953 10.953v55.812l54.77-0.52344c3.6523-0.52344 7.3008 1.043 9.9102 4.1719l66.246 86.586c1.5664 2.0859 2.6094 4.6953 2.6094 7.3008v80.328c0 5.7383-5.2148 10.953-11.477 10.953h-21.906c1.5664 25.559-18.777 46.945-44.336 46.945s-45.902-21.387-44.336-46.945h-111.62c1.5664 25.559-18.777 46.945-44.336 46.945-25.559 0-45.902-21.387-44.336-46.945h-44.336c1.5664 25.559-18.777 46.945-44.336 46.945-25.559 0-45.902-21.387-44.336-46.945zm-144.48-83.457c5.7383 0 10.953 5.2148 10.953 10.953 0 6.2578-5.2148 11.477-10.953 11.477h-44.859c-5.7383 0-10.953-5.2148-10.953-11.477 0-5.7383 5.2148-10.953 10.953-10.953zm0-55.289c5.7383 0 10.953 4.6953 10.953 10.953 0 6.2578-5.2148 10.953-10.953 10.953h-66.766c-6.2578 0-10.953-4.6953-10.953-10.953 0-6.2578 4.6953-10.953 10.953-10.953zm0-55.812c5.7383 0 10.953 5.2148 10.953 10.953 0 6.2578-5.2148 11.477-10.953 11.477h-89.195c-5.7383 0-10.953-5.2148-10.953-11.477 0-5.7383 5.2148-10.953 10.953-10.953zm577.42 114.75h-111.1v57.379h18.777c8.3477-11.996 21.906-19.301 37.035-19.301 14.605 0 28.168 7.3008 36.512 19.301h18.777zm-111.1-22.43h99.629l-49.555-65.203-50.074 0.52344zm-181 79.805c8.3477-11.996 21.906-19.301 36.512-19.301 15.125 0 28.688 7.3008 37.035 19.301h85.543v-210.73h-378.17v210.73h85.543c8.3477-11.996 21.906-19.301 37.035-19.301 14.605 0 28.688 7.3008 36.512 19.301zm-96.496 2.6094c-12.52 0-22.43 9.9102-22.43 22.43 0 11.996 9.9102 21.906 22.43 21.906 11.996 0 21.906-9.3906 21.906-21.906 0-12.52-9.9102-22.43-21.906-22.43zm133.01 0c-11.996 0-21.906 9.9102-21.906 22.43 0 11.996 9.9102 21.906 21.906 21.906 12.52 0 22.43-9.3906 22.43-21.906 0-12.52-9.9102-22.43-22.43-22.43zm200.3 0c-12.52 0-22.43 9.9102-22.43 22.43s9.9102 21.906 22.43 21.906c11.996 0 21.906-9.3906 21.906-21.906 0-12.52-9.9102-22.43-21.906-22.43z"/></svg>