<svg xmlns="http://www.w3.org/2000/svg" xmlns:xlink="http://www.w3.org/1999/xlink" width="700pt" height="700pt" version="1.1" viewBox="0 0 700 700"><g xmlns="http://www.w3.org/2000/svg"><path d="m229.6 217.28h15.68c3.3594 0 5.6016-3.3594 5.6016-6.7188 0 0 3.3594-41.441 6.7188-68.32 0.55859-6.7188 6.1602-10.078 11.199-8.9609 20.16 4.4805 48.719 7.2812 80.641 7.2812s60.48-2.8008 80.641-7.2812c5.0391-1.1211 10.641 2.2383 11.199 8.9609 3.3594 26.879 6.7188 68.32 6.7188 68.32 0 3.3594 2.8008 6.7188 6.1602 6.7188h15.68c1.1211 0 2.2383-2.2383 3.3594-5.0391v-34.16c0-7.8398 5.0391-14.559 12.32-16.801-11.758-66.641-67.758-116.48-135.52-116.48s-123.76 49.84-136.08 116.48c7.2812 2.2383 12.32 8.9609 12.32 16.801v35.281c1.1172 2.2383 1.6797 3.918 3.3594 3.918z"/><path d="m562.8 521.36-14.559-54.879c-9.5195-38.078-41.441-66.078-80.078-71.121l-34.16-4.4805-10.641-29.68c24.078-17.359 43.121-41.441 52.641-71.121l-20.723 12.32c-4.4805 2.2383-8.3984 4.4805-12.879 6.1602-20.16 32.48-54.32 53.762-92.961 53.762-52.641 0-98.559-40.879-109.2-97.441-0.55859-4.4805-4.4805-7.8398-8.3984-8.9609-0.55859 0-3.3594-1.1211-5.6016-3.3594v15.121c0 5.0391-2.2383 9.5195-5.6016 12.879 8.9609 33.602 29.68 62.16 56 80.641l-10.641 30.238-34.16 4.4805c-38.641 5.0391-70.559 33.039-80.078 71.121l-14.562 54.32c-1.6797 6.1602-0.55859 12.32 3.3594 17.359 3.3594 5.0391 9.5195 7.2812 15.68 7.2812h386.96c6.1602 0 11.762-2.8008 15.68-7.2812 3.9219-5.0391 5.6016-11.199 3.9219-17.359zm-276.64-119.28 10.078-30.238c16.801 7.8398 34.719 12.32 53.762 12.32 19.039 0 36.398-4.4805 53.199-12.32l10.078 30.238c-37.516 27.441-89.039 27.441-127.12 0z"/><path d="m192.64 268.8c1.1211 3.9219 3.9219 6.7188 7.8398 6.7188h7.2812c4.4805 0 8.3984-3.9219 8.3984-8.3984v-89.043c0-4.4805-3.9219-8.3984-8.3984-8.3984h-7.2812c-0.55859 0-1.1211 0.55859-2.2383 0.55859 6.1562-77.84 71.68-140 151.76-140s145.6 62.16 151.76 140.56c-0.55859 0-1.1211-0.55859-2.2383-0.55859h-7.2812c-4.4805 0-8.3984 3.9219-8.3984 8.3984v77.281l-41.441 24.078c-10.078 6.1602-21.84 9.5195-34.16 9.5195h-29.68v-1.1211c0-5.0391-4.4805-9.5195-9.5195-9.5195h-38.078c-5.0391 0-9.5195 4.4805-9.5195 9.5195v17.359c0 5.0391 4.4805 9.5195 9.5195 9.5195h38.078c5.0391 0 9.5195-4.4805 9.5195-9.5195v-0.55859h29.68c14.559 0 29.68-3.9219 42-11.199l35.281-20.719c1.6797 1.6797 3.3594 2.2383 5.6016 2.2383h7.2812c3.9219 0 6.7188-2.8008 7.8398-6.7188 22.961-2.8008 40.879-22.398 40.879-45.922 0-19.602-12.32-35.281-29.68-42.559-0.003906-91.836-75.047-166.32-167.45-166.32s-167.44 74.48-168.56 166.32c-16.801 6.7188-29.68 22.961-29.68 42.559 0 23.52 17.918 43.121 40.879 45.922z"/><path d="m328.16 215.04c0 10.824-8.7734 19.602-19.602 19.602-10.824 0-19.598-8.7773-19.598-19.602 0-10.824 8.7734-19.598 19.598-19.598 10.828 0 19.602 8.7734 19.602 19.598"/><path d="m410.48 215.04c0 10.824-8.7773 19.602-19.602 19.602-10.824 0-19.598-8.7773-19.598-19.602 0-10.824 8.7734-19.598 19.598-19.598 10.824 0 19.602 8.7734 19.602 19.598"/></g></svg>