<svg xmlns="http://www.w3.org/2000/svg" xmlns:xlink="http://www.w3.org/1999/xlink" width="700pt" height="700pt" version="1.1" viewBox="0 0 700 700"><g xmlns="http://www.w3.org/2000/svg"><path d="m551.6 189.67h-122.25v-44.07c0-14.855-5.8984-29.098-16.402-39.598-10.5-10.504-24.746-16.402-39.598-16.402h-224.95c-14.852 0-29.094 5.8984-39.598 16.402-10.5 10.5-16.402 24.742-16.402 39.598v129.86c0 14.852 5.9023 29.094 16.402 39.598 10.504 10.5 24.746 16.402 39.598 16.402h24.359l0.003907 60.535c-0.011719 4.4297 2.5898 8.4531 6.6367 10.258 4.0469 1.8047 8.7773 1.0547 12.066-1.9141l76.941-68.879h43.566v19.039h0.003906c0 14.852 5.8984 29.098 16.402 39.598 10.5 10.504 24.746 16.402 39.598 16.402h67.59l67.762 60.984c3.2812 2.9609 8 3.7148 12.043 1.9258 4.0391-1.793 6.6523-5.793 6.6602-10.215v-52.641h29.57c14.852 0 29.094-5.8984 39.598-16.402 10.5-10.5 16.402-24.742 16.402-39.598v-104.89c0-14.852-5.9023-29.098-16.402-39.598-10.504-10.504-24.746-16.402-39.598-16.402zm-287.5 119.39c-2.7695-0.007812-5.4414 1.0117-7.5039 2.8594l-61.602 55.215v-46.871c0-2.9727-1.1797-5.8203-3.2812-7.9219-2.1016-2.1016-4.9492-3.2812-7.918-3.2812h-35.395c-8.9102 0-17.457-3.5391-23.758-9.8398-6.3008-6.3008-9.8398-14.848-9.8398-23.758v-129.86c0-8.9141 3.5391-17.461 9.8398-23.762 6.3008-6.3008 14.848-9.8398 23.758-9.8398h224.95c8.9102 0 17.457 3.5391 23.758 9.8398 6.3008 6.3008 9.8438 14.848 9.8438 23.762v44.016h-39.199c-14.855 0-29.098 5.8984-39.602 16.402-10.5 10.5-16.398 24.746-16.398 39.598v63.445zm321.1 41.441c0 8.9102-3.5391 17.457-9.8398 23.758s-14.848 9.8438-23.758 9.8438h-40.77c-6.1875 0-11.199 5.0117-11.199 11.199v38.695l-52.246-47.039h-0.003907c-2.0625-1.8477-4.7344-2.8633-7.5039-2.8555h-71.902c-8.9102 0-17.457-3.543-23.758-9.8438-6.3047-6.3008-9.8438-14.848-9.8438-23.758v-104.83c0-8.9102 3.5391-17.457 9.8438-23.758 6.3008-6.3008 14.848-9.8438 23.758-9.8438h183.62c8.9102 0 17.457 3.543 23.758 9.8438 6.3008 6.3008 9.8398 14.848 9.8398 23.758z"/></g></svg>