<svg version="1.1" id="Capa_1" xmlns="http://www.w3.org/2000/svg" xmlns:xlink="http://www.w3.org/1999/xlink" x="0px" y="0px"
	 width="252.929px" height="196.543px" viewBox="0 0 252.929 196.543" enable-background="new 0 0 252.929 196.543"
	 xml:space="preserve">
<path d="M43.336,176.424c-0.725-0.728-1.585-1.292-2.581-1.695c-0.996-0.402-2.087-0.604-3.271-0.604
	c-0.627,0-1.278,0.054-1.954,0.162c-0.676,0.107-1.337,0.299-1.985,0.571c-0.648,0.274-1.265,0.652-1.85,1.135
	s-1.094,1.091-1.525,1.824c-0.697-1.151-1.641-2.055-2.832-2.71c-1.191-0.654-2.554-0.982-4.086-0.982
	c-0.516,0-1.048,0.047-1.599,0.14c-0.55,0.094-1.097,0.256-1.64,0.486c-0.544,0.23-1.063,0.544-1.557,0.939
	c-0.495,0.396-0.944,0.896-1.348,1.501v-2.526h-4.347v20.687h4.388v-11.466c0-0.878,0.14-1.659,0.418-2.343
	c0.279-0.685,0.652-1.256,1.119-1.717c0.466-0.462,1.013-0.811,1.64-1.047c0.627-0.238,1.296-0.357,2.006-0.357
	c1.477,0,2.623,0.468,3.438,1.404c0.815,0.936,1.223,2.274,1.223,4.016v11.51h4.389v-11.466c0-0.878,0.139-1.659,0.418-2.343
	c0.278-0.685,0.651-1.256,1.118-1.717c0.466-0.462,1.013-0.811,1.64-1.047c0.627-0.238,1.296-0.357,2.007-0.357
	c1.476,0,2.622,0.468,3.438,1.404c0.815,0.936,1.222,2.274,1.222,4.016v11.51h4.389v-13c0-1.209-0.199-2.316-0.596-3.325
	C44.622,178.018,44.061,177.15,43.336,176.424"/>
<path d="M66.481,177.169c-0.72-0.921-1.613-1.659-2.678-2.213c-1.065-0.555-2.34-0.832-3.822-0.832c-1.454,0-2.807,0.27-4.06,0.81
	c-1.252,0.54-2.346,1.292-3.282,2.257c-0.936,0.964-1.67,2.112-2.203,3.444c-0.532,1.331-0.799,2.789-0.799,4.372
	c0,1.585,0.267,3.042,0.799,4.373c0.533,1.332,1.267,2.479,2.203,3.445c0.936,0.964,2.03,1.716,3.282,2.256
	c1.253,0.54,2.606,0.81,4.06,0.81c1.482,0,2.757-0.273,3.822-0.821c1.065-0.546,1.958-1.28,2.678-2.201v2.482h4.513v-20.687h-4.513
	V177.169z M66.308,187.642c-0.302,0.807-0.727,1.505-1.274,2.095c-0.547,0.592-1.202,1.055-1.965,1.393
	c-0.763,0.339-1.613,0.508-2.548,0.508c-0.979,0-1.854-0.176-2.624-0.529c-0.77-0.353-1.422-0.828-1.954-1.425
	c-0.533-0.598-0.943-1.299-1.231-2.104c-0.288-0.808-0.432-1.663-0.432-2.571c0-0.906,0.144-1.762,0.432-2.569
	c0.288-0.806,0.698-1.508,1.231-2.104c0.532-0.599,1.184-1.073,1.954-1.426s1.645-0.529,2.624-0.529c0.935,0,1.785,0.17,2.548,0.508
	c0.763,0.338,1.418,0.802,1.965,1.393c0.547,0.592,0.972,1.288,1.274,2.095c0.302,0.807,0.453,1.684,0.453,2.634
	C66.761,185.958,66.61,186.836,66.308,187.642"/>
<path d="M91.74,184.975c-1.267-0.985-3.031-1.644-5.291-1.976l-2.137-0.324c-0.476-0.072-0.922-0.154-1.339-0.248
	c-0.418-0.093-0.778-0.219-1.08-0.378c-0.302-0.158-0.543-0.36-0.723-0.604c-0.18-0.244-0.27-0.547-0.27-0.906
	c0-0.735,0.342-1.329,1.025-1.782c0.684-0.453,1.645-0.679,2.883-0.679c0.648,0,1.285,0.056,1.911,0.172
	c0.627,0.115,1.22,0.259,1.782,0.431c0.561,0.173,1.072,0.364,1.533,0.573c0.46,0.208,0.849,0.408,1.166,0.593l1.943-3.518
	c-1.079-0.692-2.339-1.229-3.779-1.61c-1.439-0.381-2.972-0.572-4.599-0.572c-1.325,0-2.512,0.155-3.563,0.465
	c-1.051,0.31-1.947,0.748-2.688,1.316c-0.742,0.569-1.311,1.263-1.706,2.084c-0.397,0.821-0.594,1.742-0.594,2.764
	c0,1.671,0.594,3.021,1.781,4.05c1.188,1.028,2.934,1.701,5.237,2.019l2.159,0.281c1.238,0.172,2.145,0.45,2.721,0.831
	c0.576,0.382,0.864,0.867,0.864,1.458c0,0.776-0.396,1.392-1.188,1.846c-0.792,0.453-1.965,0.68-3.52,0.68
	c-0.849,0-1.608-0.057-2.278-0.173c-0.669-0.115-1.281-0.27-1.835-0.464c-0.555-0.194-1.051-0.417-1.49-0.669
	c-0.439-0.252-0.846-0.521-1.22-0.81l-2.095,3.39c0.749,0.561,1.533,1.015,2.354,1.361c0.821,0.345,1.627,0.614,2.418,0.809
	c0.792,0.196,1.541,0.324,2.246,0.389c0.705,0.065,1.324,0.099,1.857,0.099c1.483,0,2.811-0.166,3.984-0.497
	c1.174-0.331,2.16-0.795,2.959-1.395c0.799-0.597,1.41-1.309,1.835-2.137c0.425-0.828,0.637-1.738,0.637-2.731
	C93.64,187.34,93.007,185.961,91.74,184.975"/>
<path d="M133.997,177.137c-0.857-0.958-1.886-1.699-3.088-2.225c-1.202-0.525-2.523-0.788-3.962-0.788
	c-1.527,0-2.919,0.263-4.179,0.788c-1.26,0.525-2.343,1.267-3.25,2.225c-0.907,0.957-1.612,2.104-2.116,3.443
	c-0.504,1.34-0.756,2.815-0.756,4.428c0,1.641,0.259,3.131,0.778,4.47c0.518,1.339,1.244,2.483,2.18,3.433
	c0.936,0.95,2.052,1.686,3.348,2.202c1.295,0.521,2.721,0.778,4.275,0.778c1.569,0,3.063-0.216,4.481-0.648
	c1.418-0.432,2.76-1.188,4.027-2.267l-2.245-3.217c-0.864,0.689-1.818,1.227-2.862,1.607c-1.044,0.383-2.084,0.572-3.12,0.572
	c-0.735,0-1.44-0.1-2.116-0.302c-0.677-0.202-1.289-0.515-1.836-0.939c-0.547-0.425-1.015-0.969-1.404-1.631
	c-0.388-0.662-0.655-1.461-0.798-2.396h15.288c0.029-0.26,0.051-0.532,0.065-0.82c0.014-0.288,0.021-0.576,0.021-0.864
	c0-1.611-0.241-3.084-0.724-4.416C135.522,179.238,134.853,178.094,133.997,177.137 M121.375,183.236
	c0.115-0.748,0.317-1.436,0.605-2.062s0.658-1.166,1.112-1.62c0.454-0.453,0.993-0.802,1.619-1.047
	c0.627-0.245,1.343-0.367,2.149-0.367c1.439,0,2.613,0.446,3.52,1.339c0.907,0.893,1.482,2.146,1.727,3.757H121.375z"/>
<path d="M193.957,177.169c-0.721-0.921-1.612-1.659-2.678-2.213c-1.064-0.555-2.34-0.832-3.821-0.832
	c-1.454,0-2.809,0.27-4.061,0.81s-2.346,1.292-3.281,2.257c-0.936,0.964-1.672,2.112-2.203,3.444c-0.533,1.331-0.8,2.789-0.8,4.372
	c0,1.585,0.267,3.042,0.8,4.373c0.531,1.332,1.268,2.479,2.203,3.445c0.936,0.964,2.029,1.716,3.281,2.256s2.606,0.81,4.061,0.81
	c1.481,0,2.757-0.273,3.821-0.821c1.065-0.546,1.957-1.28,2.678-2.201v2.482h4.514v-20.687h-4.514V177.169z M193.785,187.642
	c-0.303,0.807-0.728,1.505-1.274,2.095c-0.548,0.592-1.202,1.055-1.966,1.393c-0.762,0.339-1.612,0.508-2.548,0.508
	c-0.979,0-1.854-0.176-2.623-0.529c-0.771-0.353-1.422-0.828-1.954-1.425c-0.533-0.598-0.943-1.299-1.231-2.104
	c-0.288-0.808-0.432-1.663-0.432-2.571c0-0.906,0.144-1.762,0.432-2.569c0.288-0.806,0.698-1.508,1.231-2.104
	c0.532-0.599,1.184-1.073,1.954-1.426c0.77-0.353,1.645-0.529,2.623-0.529c0.936,0,1.786,0.17,2.548,0.508
	c0.764,0.338,1.418,0.802,1.966,1.393c0.547,0.592,0.972,1.288,1.274,2.095c0.302,0.807,0.452,1.684,0.452,2.634
	C194.237,185.958,194.086,186.836,193.785,187.642"/>
<path d="M111.092,191.227c-0.727,0.272-1.443,0.41-2.149,0.41c-0.461,0-0.889-0.071-1.285-0.217c-0.396-0.143-0.741-0.37-1.036-0.68
	c-0.295-0.309-0.529-0.709-0.702-1.198c-0.173-0.488-0.259-1.08-0.259-1.771v-9.005h7.248v-4.102h-7.248v-6.264h-4.535v6.264h-4.124
	v4.102h4.124v9.091c0,2.75,0.651,4.775,1.954,6.079c1.303,1.303,3.128,1.954,5.475,1.954c1.31,0,2.486-0.201,3.53-0.604
	c0.69-0.267,1.33-0.571,1.929-0.907l-1.543-3.778C112.034,190.834,111.576,191.044,111.092,191.227"/>
<path d="M151.837,174.124c-1.267,0-2.41,0.23-3.434,0.69c-1.022,0.461-1.879,1.57-2.569,2.563v-2.714h-4.098v20.687h4.141v-11.38
	c0-0.878,0.122-1.663,0.367-2.354c0.245-0.691,0.583-1.274,1.015-1.749s0.95-0.835,1.556-1.08c0.604-0.244,1.266-0.367,1.985-0.367
	c0.549,0,1.138,0.065,1.771,0.195c0.323,0.065,0.625,0.146,0.907,0.242l1.334-4.317c-0.362-0.114-0.729-0.213-1.107-0.277
	C153.15,174.171,152.529,174.124,151.837,174.124"/>
<path d="M214.576,174.124c-1.268,0-2.411,0.23-3.435,0.69c-1.021,0.461-1.877,1.57-2.568,2.563v-2.714h-4.099v20.687h4.142v-11.38
	c0-0.878,0.122-1.663,0.367-2.354c0.244-0.691,0.583-1.274,1.015-1.749s0.95-0.835,1.555-1.08c0.604-0.244,1.267-0.367,1.986-0.367
	c0.548,0,1.137,0.065,1.771,0.195c0.323,0.065,0.625,0.146,0.907,0.242l1.334-4.317c-0.362-0.114-0.729-0.213-1.106-0.277
	C215.887,174.171,215.266,174.124,214.576,174.124"/>
<path d="M235.656,166.256v10.913c-0.721-0.921-1.613-1.659-2.678-2.213c-1.065-0.555-2.341-0.832-3.822-0.832
	c-1.454,0-2.808,0.27-4.06,0.81c-1.253,0.54-2.347,1.292-3.282,2.257c-0.937,0.964-1.67,2.112-2.202,3.444
	c-0.534,1.331-0.8,2.789-0.8,4.372c0,1.585,0.266,3.042,0.8,4.373c0.532,1.332,1.266,2.479,2.202,3.445
	c0.936,0.964,2.029,1.716,3.282,2.256c1.252,0.54,2.605,0.81,4.06,0.81c1.481,0,2.757-0.273,3.822-0.821
	c1.064-0.546,1.957-1.28,2.678-2.201v2.482h4.513v-29.095H235.656z M235.483,187.642c-0.303,0.807-0.729,1.505-1.274,2.095
	c-0.547,0.592-1.202,1.055-1.965,1.393c-0.763,0.339-1.614,0.508-2.548,0.508c-0.979,0-1.854-0.176-2.624-0.529
	c-0.771-0.353-1.422-0.828-1.954-1.425c-0.533-0.598-0.943-1.299-1.231-2.104c-0.288-0.808-0.432-1.663-0.432-2.571
	c0-0.906,0.144-1.762,0.432-2.569c0.288-0.806,0.698-1.508,1.231-2.104c0.532-0.599,1.184-1.073,1.954-1.426
	c0.77-0.353,1.645-0.529,2.624-0.529c0.934,0,1.785,0.17,2.548,0.508s1.418,0.802,1.965,1.393c0.546,0.592,0.972,1.288,1.274,2.095
	c0.302,0.807,0.452,1.684,0.452,2.634C235.935,185.958,235.785,186.836,235.483,187.642"/>
<path d="M162.638,180.225c0.575-0.583,1.26-1.037,2.052-1.361c0.792-0.323,1.648-0.485,2.569-0.485c1.015,0,1.956,0.161,2.827,0.485
	c0.842,0.313,1.571,0.75,2.19,1.306l2.173-3.613c-0.814-0.651-1.732-1.185-2.753-1.601c-1.36-0.554-2.839-0.831-4.438-0.831
	c-1.598,0-3.076,0.277-4.438,0.831c-1.36,0.554-2.533,1.317-3.52,2.29c-0.985,0.971-1.76,2.119-2.32,3.443
	c-0.563,1.325-0.844,2.765-0.844,4.318c0,1.556,0.281,2.994,0.844,4.32c0.561,1.323,1.335,2.471,2.32,3.443
	c0.986,0.972,2.159,1.734,3.52,2.289c1.361,0.554,2.84,0.831,4.438,0.831c1.599,0,3.077-0.277,4.438-0.831
	c1.021-0.416,1.938-0.949,2.753-1.601l-2.173-3.613c-0.619,0.555-1.349,0.991-2.19,1.305c-0.871,0.324-1.813,0.486-2.827,0.486
	c-0.921,0-1.777-0.162-2.569-0.486c-0.792-0.322-1.477-0.777-2.052-1.36s-1.029-1.281-1.36-2.094
	c-0.331-0.814-0.496-1.71-0.496-2.689c0-0.979,0.165-1.875,0.496-2.688C161.609,181.505,162.063,180.808,162.638,180.225"/>
<path d="M249.676,192.32c0.3,0,0.582,0.056,0.845,0.167c0.264,0.109,0.493,0.262,0.688,0.452c0.196,0.191,0.35,0.414,0.463,0.669
	c0.113,0.257,0.169,0.528,0.169,0.82c0,0.288-0.056,0.562-0.169,0.817c-0.113,0.257-0.267,0.481-0.463,0.674
	c-0.195,0.193-0.425,0.345-0.688,0.456c-0.263,0.111-0.545,0.167-0.845,0.167c-0.307,0-0.594-0.056-0.86-0.167
	c-0.266-0.111-0.496-0.263-0.692-0.456c-0.195-0.192-0.35-0.417-0.459-0.674c-0.112-0.256-0.168-0.529-0.168-0.817
	c0-0.292,0.056-0.563,0.168-0.82c0.109-0.255,0.264-0.478,0.459-0.669c0.196-0.19,0.427-0.343,0.692-0.452
	C249.083,192.376,249.37,192.32,249.676,192.32 M249.676,195.956c0.21,0,0.407-0.04,0.592-0.12s0.346-0.189,0.481-0.326
	c0.136-0.138,0.244-0.3,0.322-0.484c0.077-0.185,0.116-0.384,0.116-0.597c0-0.21-0.039-0.408-0.116-0.594
	c-0.078-0.187-0.187-0.348-0.322-0.484c-0.136-0.136-0.297-0.244-0.481-0.324c-0.185-0.079-0.382-0.119-0.592-0.119
	c-0.216,0-0.417,0.04-0.604,0.119c-0.187,0.08-0.349,0.188-0.486,0.324c-0.138,0.137-0.246,0.298-0.324,0.484
	c-0.078,0.186-0.117,0.384-0.117,0.594c0,0.213,0.039,0.412,0.117,0.597s0.187,0.347,0.324,0.484c0.138,0.137,0.3,0.246,0.486,0.326
	S249.46,195.956,249.676,195.956 M249.798,193.494c0.257,0,0.452,0.058,0.585,0.172s0.199,0.267,0.199,0.458
	c0,0.149-0.047,0.274-0.144,0.373c-0.095,0.099-0.233,0.164-0.416,0.194l0.583,0.673h-0.63l-0.521-0.653h-0.062v0.653h-0.525v-1.87
	H249.798z M249.394,193.95v0.343h0.396c0.08,0,0.143-0.013,0.186-0.038c0.044-0.025,0.066-0.069,0.066-0.131
	c0-0.061-0.022-0.104-0.066-0.132c-0.043-0.028-0.105-0.042-0.186-0.042H249.394z"/>
<path fill="#E30D17" d="M96.719,77.964c0-24.784,11.578-46.85,29.605-61.13C113.031,6.304,96.239,0,77.964,0
	C34.906,0,0,34.906,0,77.964s34.906,77.964,77.964,77.964c18.275,0,35.067-6.304,48.36-16.834
	C108.297,124.813,96.719,102.748,96.719,77.964"/>
<path fill="#EB610A" d="M96.719,77.964c0,24.784,11.578,46.85,29.605,61.13c18.026-14.28,29.604-36.346,29.604-61.13
	s-11.578-46.85-29.604-61.13C108.297,31.114,96.719,53.18,96.719,77.964"/>
<path fill="#F69F00" d="M247.361,120.135v-2.282h-0.924v-0.627h2.528v0.627h-0.923v2.282H247.361z M252.248,120.135v-2.019
	l-0.655,1.741h-0.722l-0.655-1.737v2.015h-0.682v-2.909h0.977l0.724,1.862l0.718-1.862h0.978v2.909H252.248z"/>
<path fill="#F69F00" d="M174.683,0c-18.275,0-35.067,6.304-48.359,16.834c18.026,14.281,29.604,36.346,29.604,61.13
	s-11.578,46.85-29.604,61.13c13.292,10.53,30.083,16.834,48.359,16.834c43.058,0,77.964-34.906,77.964-77.964
	C252.647,34.905,217.741,0,174.683,0"/>
</svg>

