<svg version="1.1" id="Capa_1" xmlns="http://www.w3.org/2000/svg" xmlns:xlink="http://www.w3.org/1999/xlink" x="0px" y="0px"
	 width="141.732px" height="147.401px" viewBox="0 0 141.732 147.401" enable-background="new 0 0 141.732 147.401"
	 xml:space="preserve">
<g>
	<path fill="#FFCB00" d="M79.106,24.216C57.157,12.154,37.576,5.267,26.303,5.267c-3.125,0-5.611,0.53-7.333,1.623
		C9.32,13.019,3.373,50.392,5.715,90.199c1.866,31.715,8.078,48.495,13.41,51.06c9.554,4.595,43.222-8.267,76.645-29.28
		c28.131-17.685,40.722-31.522,40.722-37.389C136.491,64.025,111.285,41.897,79.106,24.216"/>
	<path fill="#FFFFFF" d="M81.629,19.622C69.999,13.229,30.904-6.892,16.161,2.467C1.41,11.834-1.297,60.25,0.482,90.506
		c0.866,14.729,4.196,49.622,16.369,55.479c1.981,0.951,4.494,1.392,7.438,1.392c17.124,0,48.766-14.926,74.269-30.959
		c12.981-8.162,43.175-28.574,43.175-41.827C141.733,59.516,110.577,35.528,81.629,19.622 M95.769,111.979
		c-33.422,21.015-67.09,33.875-76.645,29.28c-5.332-2.563-11.544-19.345-13.41-51.06C3.373,50.392,9.319,13.019,18.971,6.89
		c1.722-1.093,4.208-1.623,7.333-1.623c11.273,0,30.854,6.887,52.803,18.949c32.179,17.682,57.385,39.81,57.385,50.374
		C136.491,80.455,123.899,94.294,95.769,111.979"/>
	<path fill="#1D1D1B" d="M88.429,47.005c-5.274-3.251-12.715-4.875-22.325-4.875c-9.139,0-17.102,0.459-23.887,1.375
		c-1.294,0.172-2.295,0.486-3.001,0.948c-0.704,0.459-1.196,1.181-1.47,2.17l-1.858,9.201h26.219l1.37-8.465l17.077,20.782
		l-23.749,20.41l1.533-9.485H31.192l-7.977,39.481v0.105v0.304c0,0.513,0.176,0.922,0.53,1.226c0.354,0.303,0.804,0.463,1.353,0.463
		h12.06c0.626,0,1.217-0.199,1.765-0.589c0.55-0.392,0.884-0.895,1-1.509l5.531-23.654c0.432,0,1.087,0.028,1.969,0.078
		c0.886,0.054,1.805,0.09,2.766,0.126c0.962,0.031,1.988,0.077,3.089,0.127c1.098,0.051,2.038,0.076,2.824,0.076
		c6.666,0,12.554-1.017,17.885-2.093c16.31-3.29,22.289-19.736,22.354-32.242C96.373,54.908,93.704,50.255,88.429,47.005"/>
</g>
</svg>

