<svg xmlns="http://www.w3.org/2000/svg" xmlns:xlink="http://www.w3.org/1999/xlink" width="700pt" height="700pt" version="1.1" viewBox="0 0 700 700"><g xmlns="http://www.w3.org/2000/svg"><path d="m233.61 67.27c-33.301 0-66.523 12.848-91.875 38.324-50.703 50.957-50.641 133.46 0 184.45l196.18 197.75c3.1523 3.1641 7.4336 4.9414 11.898 4.9414s8.75-1.7773 11.902-4.9414c65.488-65.82 131.04-131.58 196.52-197.4 50.703-50.957 50.703-133.67 0-184.62s-133.22-50.957-183.93 0l-24.152 24.5-24.5-24.676c-25.352-25.48-58.75-38.324-92.051-38.324zm0 33.25c24.57 0 49.258 9.6133 68.25 28.699l36.398 36.574c3.1523 3.1641 7.4375 4.9414 11.902 4.9414 4.4648 0 8.7461-1.7773 11.898-4.9414l36.051-36.398c37.984-38.176 98.34-38.176 136.32 0s37.984 99.023 0 137.2c-61.535 61.844-123.09 123.83-184.62 185.68l-184.27-185.85c-37.961-38.227-37.984-99.023 0-137.2 18.992-19.086 43.504-28.699 68.074-28.699z"/></g></svg>