<svg width="700pt" height="700pt" version="1.1" viewBox="0 0 700 700" xmlns="http://www.w3.org/2000/svg"><path d="m408.33 282.92c0 31.355-26.172 56.875-58.332 56.875s-58.332-25.52-58.332-56.875c0-31.359 26.172-56.875 58.332-56.875s58.332 25.516 58.332 56.875zm175-8.5117s-82.676 160.18-233.04 160.18c-139.61 0-233.62-160.18-233.62-160.18s86.449-143.16 233.62-143.16c149.61 0 233.04 143.16 233.04 143.16zm-136.11 8.5117c0-52.27-43.613-94.793-97.223-94.793s-97.223 42.523-97.223 94.793 43.613 94.789 97.223 94.789 97.223-42.52 97.223-94.789z"/></svg>
