<?xml version="1.0" encoding="utf-8"?>
<!-- Generator: Adobe Illustrator 23.0.3, SVG Export Plug-In . SVG Version: 6.00 Build 0)  -->
<svg width="50" height="50" version="1.1" id="Capa_1" xmlns="http://www.w3.org/2000/svg" xmlns:xlink="http://www.w3.org/1999/xlink" x="0px" y="0px"
	 viewBox="0 0 40 30" style="enable-background:new 0 0 40 30;" xml:space="preserve">
<style type="text/css">
	.st0{fill:#FFFFFF;}
</style>
<g>
	<path class="st0" d="M26.9,26.5c-1-0.2-2-0.9-2.7-1.7C23,23.6,22,22,21.6,21.2c-0.1-0.3,0-0.3,0-0.3l0,0c2-0.8,2.3-2.8,2.3-3.3
		c0-2.5-2.4-3.3-4.6-3.3c-0.8,0-1.1,0.1-1.9,0.1c-1,0-1.6-0.1-1.7-0.1c-0.1,0-0.2,0.1-0.2,0.3c0,0.6,1.4-0.4,1.4,1.6v8.2
		c0,1.9-1.3,1.4-1.3,1.8c0,0.2,0.2,0.2,0.3,0.2c0.5,0,1.1-0.1,1.9-0.1c1,0,1.3,0.1,1.9,0.1c0.4,0,0.5-0.1,0.5-0.2
		c0-0.6-1.8,0.3-1.8-2.1v-8.6c0-0.5,0.4-0.5,0.9-0.5c2,0,3.5,1.1,3.6,3.2c0,1.4-1,2.7-2.8,2.7c-0.6,0-0.5,0-0.6,0s-0.2,0-0.2,0.2
		s0.1,0.2,0.3,0.3c0.2,0.1,0.6,0.2,1.1,0.9c1.2,1.9,2.5,4.8,5.5,4.8c1.1,0,1-0.1,1-0.2C27,26.5,26.9,26.5,26.9,26.5z"/>
	<path class="st0" d="M37.3,7.8c0-0.8-0.2-1.6-0.6-2.3l0,0V5.4l-2.8-5C33.7,0.1,33.5,0,33.2,0H6.8C6.5,0,6.3,0.1,6.1,0.4L3.3,5.3
		L3.2,5.5C2.9,6.2,2.7,7,2.7,7.8c0,2.1,1.4,4,3.3,4.6V30h28V12.4C35.9,11.7,37.3,9.9,37.3,7.8z M32.4,28.5H7.6V12.7l0,0
		c1.8,0,3.3-0.9,4.2-2.3c0.9,1.4,2.4,2.3,4.1,2.3s3.3-0.9,4.1-2.3c0.9,1.4,2.4,2.3,4.1,2.3s3.3-0.9,4.1-2.3c0.9,1.4,2.4,2.3,4.1,2.3
		l0,0v15.8H32.4z M32.4,11.1c-1.9,0-3.4-1.5-3.4-3.4C29,7.3,28.7,7,28.3,7s-0.8,0.3-0.8,0.8c0,1.9-1.5,3.4-3.4,3.4s-3.4-1.5-3.4-3.4
		C20.8,7.3,20.4,7,20,7s-0.8,0.3-0.8,0.8c0,1.9-1.5,3.4-3.4,3.4s-3.4-1.8-3.4-3.4c0-0.4-0.3-0.8-0.8-0.8S11,7.3,11,7.8
		c0,1.9-1.5,3.4-3.4,3.4S4.2,9.7,4.2,7.8c0-0.5,0.1-1.1,0.4-1.5l2.7-4.7h25.5l2.6,4.7l0,0c0.2,0.5,0.4,1,0.4,1.5
		C35.8,9.6,34.3,11.1,32.4,11.1z"/>
</g>
</svg>
