<?xml version="1.0" encoding="utf-8"?>
<!-- Generator: Adobe Illustrator 17.0.0, SVG Export Plug-In . SVG Version: 6.00 Build 0)  -->
<!DOCTYPE svg PUBLIC "-//W3C//DTD SVG 1.1//EN" "http://www.w3.org/Graphics/SVG/1.1/DTD/svg11.dtd">
<svg version="1.1" id="Capa_1" xmlns="http://www.w3.org/2000/svg" xmlns:xlink="http://www.w3.org/1999/xlink" x="0px" y="0px"
	 width="512px" height="512px" viewBox="0 0 512 512" enable-background="new 0 0 512 512" xml:space="preserve">
<path fill="#FFFFFF" d="M454.471,415.501c-0.012-0.023-0.023-0.047-0.035-0.07c-0.023-0.047-0.047-0.094-0.07-0.141l-32.754-62.605
	c-18.637-35.668-35.16-61.097-78.285-63.418c-17.609-0.957-28.883-4.16-41.617-19.012c-1.344-1.574-3.559-3.895-5.742-6.141
	c16.195-15.754,28.562-35.449,34.004-54.984h9.289c15.582,0,28.262-12.793,28.262-28.515v-13.844
	c0-8.781-3.957-16.644-10.164-21.879v-27.406c0-36.258-14.043-66.777-40.601-88.249C293.433,10.383,262.148,0,228.66,0
	c-33.972,0-65.714,10.664-89.386,30.031c-27.031,22.117-41.32,53.629-41.32,91.128v23.762c-0.602,0.508-1.191,1.039-1.754,1.602
	c-5.426,5.414-8.414,12.613-8.414,20.281v13.844c0,15.723,12.68,28.512,28.262,28.512h9.293
	c5.832,20.941,19.613,42.043,37.531,58.285c-0.992,1.051-1.879,2.02-2.555,2.805c-12.769,14.894-24.031,18.094-41.621,19.023
	c-36.074,1.949-53.324,19.535-69.464,47.277c-2.102,3.605-0.879,8.23,2.73,10.332c1.195,0.695,2.5,1.027,3.793,1.027
	c2.602,0,5.137-1.348,6.539-3.758c14.297-24.57,27.648-38.187,57.211-39.785c6.73-0.355,12.965-1.086,18.883-2.57
	c16.707,23.656,51.054,37.929,91.117,37.929c1.668,0,3.344-0.027,5.031-0.078c39.441-1.164,72.742-15.519,88.824-37.879
	c5.922,1.488,12.227,2.219,19.152,2.598c34.129,1.832,46.781,19.101,65.707,55.328l23.301,44.531
	c-15.496-3.805-33.578-3.168-57.027,1.793l3.68-36.828c0.496-5.051-1.172-9.98-4.699-13.875c-3.797-4.191-9.211-6.594-14.848-6.594
	H251.902c-4.176,0-7.559,3.383-7.559,7.555c0,4.176,3.387,7.559,7.559,7.559h106.722c1.336,0,2.734,0.625,3.645,1.629
	c0.648,0.711,0.934,1.465,0.859,2.23l-10.961,109.804c-0.004,0.008-0.004,0.02-0.004,0.027l-1.402,14.035
	c-0.254,2.566-1.77,5.324-4.5,5.324H115.762c-2.609,0-4.242-2.68-4.504-5.332l-1.398-14.016c-0.004-0.02-0.004-0.035-0.004-0.051
	l-6.195-62.035c-0.012-0.332-0.043-0.66-0.098-0.98l-4.668-46.769c-0.078-0.773,0.211-1.527,0.855-2.238
	c0.914-1.008,2.309-1.629,3.645-1.629h110.382c4.172,0,7.555-3.387,7.555-7.559c0-4.176-3.383-7.559-7.555-7.559H103.395
	c-5.637,0-11.047,2.406-14.844,6.598c-3.527,3.895-5.199,8.82-4.699,13.879l3.676,36.816c-23.449-4.953-41.531-5.59-57.023-1.785
	l17.844-34.097c1.934-3.695,0.508-8.266-3.191-10.199c-3.699-1.938-8.266-0.504-10.199,3.191L7.654,415.294
	c-0.023,0.047-0.043,0.094-0.07,0.141c-0.012,0.023-0.023,0.047-0.035,0.07c-8.973,17.266-9.953,31.933-2.887,43.597
	c10.891,17.992,39.969,26.738,88.882,26.738h1.957l0.719,7.207c1.086,10.98,9.305,18.953,19.543,18.953h230.495
	c10.242,0,18.461-7.973,19.543-18.949l0.723-7.211h1.984c48.894,0,77.96-8.746,88.855-26.738
	C464.424,447.439,463.448,432.767,454.471,415.501z M317.91,138.288h-48.418c-36.07,0-50.5-8.797-63.218-16.547
	c-2.523-1.547-4.742-3.023-6.887-4.453c-6.305-4.195-11.832-7.875-18.211-7.875c-0.695,0-1.402,0.047-2.121,0.137
	c-8.18,1.047-14.359,7.824-21.121,17.683c-6.484,9.457-10.137,11.055-15.871,11.055h-4.664v-15.074c0-53.183,48-82.015,93.167-82.14
	h0.293c39.996,0,86.679,23.156,87.05,88.441V138.288z M352.409,180.616c0,7.391-5.898,13.402-13.148,13.402h-6.512
	c0.168-1.965,0.277-3.922,0.277-5.855v-34.777l6.234-0.012c2.266,0,4.402,0.586,6.266,1.621c0.18,0.125,0.371,0.242,0.566,0.352
	c3.781,2.355,6.316,6.59,6.316,11.426V180.616z M113.067,121.159c0-72.859,59.922-106.046,115.593-106.046
	c30.039,0,57.953,9.191,78.593,25.879c22.891,18.504,34.988,44.957,34.988,76.496v20.933c-0.984-0.105-1.984-0.16-2.996-0.16
	l-6.219,0.012v-8.801c-0.406-71.55-51.543-103.515-102.163-103.515c-0.109,0-0.23,0-0.34,0
	c-27.117,0.078-54.004,9.269-73.773,25.223c-22.226,17.933-34.469,43.519-34.469,72.035v15.074h-6.215c-0.023,0-0.051,0-0.074,0
	c-0.984,0-1.961,0.055-2.926,0.156V121.159z M116.048,194.046c-7.25,0-13.148-6.012-13.148-13.398v-13.844
	c0-3.621,1.41-7.023,3.977-9.582c2.469-2.461,5.707-3.816,9.141-3.816h0.031h6.238v34.758c0,1.945,0.109,3.91,0.277,5.887h-6.516
	V194.046z M138.723,200.397c-0.027-0.168-0.059-0.34-0.098-0.504c-0.793-3.977-1.227-7.906-1.227-11.73v-34.762h4.668
	c13.488,0,21.082-7.043,28.336-17.621c6.707-9.781,9.625-11.117,10.566-11.238c1.719-0.23,5.945,2.602,10.043,5.328
	c2.152,1.438,4.598,3.062,7.379,4.766c13.719,8.359,30.789,18.766,71.101,18.766h48.418v34.762c0,3.793-0.43,7.691-1.207,11.637
	c-0.055,0.223-0.098,0.445-0.129,0.676c-6.395,30.711-35,64.285-67.074,76.402c-16.113,6.059-27.515,6.066-43.574,0.031
	C173.754,264.819,145.083,231.182,138.723,200.397z M234.086,324.537c-35.328,1.047-65.695-9.754-81.085-28.504
	c6.406-3.602,12.578-8.703,18.785-15.941c0.672-0.781,1.715-1.898,2.875-3.113c8.16,5.855,16.902,10.68,25.945,14.078
	c9.727,3.656,18.383,5.484,27.051,5.484c8.687,0,17.387-1.84,27.172-5.52c10.461-3.949,20.512-9.797,29.73-16.957
	c2.105,2.164,4.496,4.648,5.672,6.023c6.172,7.195,12.215,12.266,18.496,15.855C294.574,312.6,266.449,323.584,234.086,324.537z
	 M93.544,470.724c-53.043,0-70.582-10.578-75.957-19.453c-3.937-6.504-3.102-15.578,2.461-26.988
	c16.933-8.973,37.406-9.711,69.062-2.449l4.879,48.89H93.544z M444.432,451.275c-5.375,8.871-22.906,19.449-75.925,19.449h-0.477
	l4.883-48.883c31.648-7.269,52.121-6.535,69.058,2.441C447.538,435.693,448.37,444.771,444.432,451.275z"/>
</svg>
